<svg width="2065" height="2500" viewBox="0 0 2065 2500" fill="none" xmlns="http://www.w3.org/2000/svg">
<path d="M345.032 1971.73L103.758 2026.78V464.234L345.032 519.387V1971.73Z" fill="#FF724F"/>
<path d="M646.065 2063.96L345.033 2149.51V343.645L646.065 429.089V2063.96ZM1032.23 2158.72L646.065 2300.04V193.113L1032.23 334.371V2158.72ZM2064.76 1976.44L1032.23 2492.71V0L2064.76 516.266V1976.44Z" fill="#FF724F"/>
<path d="M826.404 102.927L1032.23 0V2492.71L826.404 2389.81V102.927ZM486.734 272.742L646.065 193.081V2299.63L486.734 2219.97V272.742ZM218.113 407.073L345.033 343.613V2149.1L218.113 2085.6V407.073ZM103.758 464.234L0.242188 515.992V1976.75L103.758 2028.48V464.234Z" fill="#B6553C"/>
</svg>
