<svg width="2500" height="1650" viewBox="0 0 2500 1650" fill="none" xmlns="http://www.w3.org/2000/svg">
<path d="M1484.32 929.467C1421.83 929.467 1367.16 968.511 1335.92 1023.2H414.26C258.047 1023.2 133.077 890.414 133.077 734.201C133.077 577.988 258.047 445.207 414.26 445.207H547.041C547.041 413.964 562.663 382.722 570.473 351.479C578.284 343.669 578.284 328.047 586.095 320.237C648.58 203.077 773.55 124.97 914.142 124.97C1039.11 124.97 1148.46 187.456 1218.76 281.183C1257.81 265.562 1296.86 249.941 1343.73 242.13C1257.81 93.7278 1101.6 0 914.142 0C703.254 0 523.609 132.781 445.503 320.237H414.26C187.752 320.237 0.295898 507.692 0.295898 742.012C0.295898 976.331 187.752 1155.98 414.26 1155.98H1343.73C1367.16 1210.65 1421.83 1249.7 1492.13 1249.7C1578.06 1249.7 1648.34 1179.41 1648.34 1085.68C1648.34 991.953 1578.05 929.467 1484.32 929.467V929.467ZM1999.82 609.221C1906.09 421.765 1710.83 288.984 1492.13 288.984C1218.76 288.984 992.249 484.251 937.574 742.002C804.793 757.623 687.633 827.919 617.337 929.458H1296.86C1343.73 866.972 1414.03 835.73 1492.13 835.73C1632.72 835.73 1742.07 952.89 1742.07 1093.48C1742.07 1234.07 1624.91 1351.23 1492.13 1351.23C1414.02 1351.23 1343.73 1312.18 1296.86 1257.5H539.231C570.473 1476.2 757.929 1648.04 976.627 1648.04H1992.01C2273.2 1648.04 2499.7 1421.53 2499.7 1132.53C2499.7 843.541 2273.2 617.032 1999.82 609.221V609.221Z" fill="#FF724F"/>
</svg>
