<svg width="1771" height="2199" viewBox="0 0 1771 2199" fill="none" xmlns="http://www.w3.org/2000/svg">
<path d="M884.265 2101.62L162.783 1901.32L2 98H1768.69L1607.74 1901.05L884.265 2101.62V2101.62Z" fill="#FF724F"/>
<path d="M1469.95 1786.23L1607.48 245.444H885.345V1948.3L1469.95 1786.23V1786.23Z" fill="#FF724F"/>
<path d="M370.587 914.274L390.407 1135.44H885.344V914.274H370.587ZM330.753 466.622L350.857 687.792H885.344V466.622H330.753V466.622ZM885.344 1488.68L884.375 1488.94L638.059 1422.43L622.311 1246.03H400.289L431.272 1593.3L884.326 1719.07L885.344 1718.79V1488.68Z" fill="#EBEBEB"/>
<path d="M1398.69 914.274L1438.61 466.622H884.583V687.792H1196.23L1176.11 914.274H884.583V1135.44H1156.93L1131.25 1422.29L884.576 1488.87V1718.96L1337.99 1593.3L1341.31 1555.94L1393.3 973.665L1398.69 914.274V914.274Z" fill="white"/>
</svg>
