<svg width="2642" height="2642" viewBox="0 0 2642 2642" fill="none" xmlns="http://www.w3.org/2000/svg">
<path d="M2616.27 1089.97C2608.92 1083.84 2542.75 1033.59 2400.61 1033.59C2363.85 1033.59 2325.86 1037.27 2289.1 1043.4C2262.14 855.883 2106.52 765.189 2100.4 760.286L2062.41 738.226L2037.91 773.768C2007.27 821.566 1983.99 875.493 1970.51 930.645C1944.78 1037.27 1960.71 1137.77 2014.62 1223.56C1949.68 1260.33 1844.3 1268.91 1822.25 1270.14H82.2579C36.9202 1270.14 0.159928 1306.9 0.159928 1352.25C-2.29076 1504.23 23.4415 1656.2 76.1312 1799.59C136.173 1956.47 225.623 2072.9 340.805 2143.99C470.692 2223.65 682.676 2269 921.618 2269C1029.45 2269 1137.28 2259.19 1243.88 2239.59C1392.15 2212.62 1534.29 2161.15 1665.4 2086.39C1773.23 2023.88 1870.03 1944.22 1952.13 1851.07C2090.6 1695.42 2172.69 1521.38 2232.74 1366.96C2241.31 1366.96 2248.66 1366.96 2257.24 1366.96C2407.96 1366.96 2501.09 1306.9 2552.55 1255.43C2586.86 1223.56 2612.59 1184.34 2630.97 1140.22L2642 1108.36L2616.27 1089.97Z" fill="#FF724F"/>
<path d="M244.001 1219.88H476.816C487.844 1219.88 497.647 1211.3 497.647 1199.05V990.694C497.647 979.664 489.069 969.859 476.816 969.859H244.001C232.973 969.859 223.17 978.438 223.17 990.694V1199.05C224.395 1211.3 232.973 1219.88 244.001 1219.88Z" fill="#FF724F"/>
<path d="M565.053 1219.88H797.869C808.897 1219.88 818.699 1211.3 818.699 1199.05V990.694C818.699 979.664 810.122 969.859 797.869 969.859H565.053C554.025 969.859 544.223 978.438 544.223 990.694V1199.05C545.448 1211.3 554.025 1219.88 565.053 1219.88Z" fill="#FF724F"/>
<path d="M892.211 1219.88H1125.03C1136.05 1219.88 1145.86 1211.3 1145.86 1199.05V990.694C1145.86 979.664 1137.28 969.859 1125.03 969.859H892.211C881.183 969.859 871.38 978.438 871.38 990.694V1199.05C871.38 1211.3 879.957 1219.88 892.211 1219.88Z" fill="#FF724F"/>
<path d="M1214.49 1219.88H1447.3C1458.33 1219.88 1468.13 1211.3 1468.13 1199.05V990.694C1468.13 979.664 1459.55 969.859 1447.3 969.859H1214.49C1203.46 969.859 1193.65 978.438 1193.65 990.694V1199.05C1193.65 1211.3 1203.46 1219.88 1214.49 1219.88Z" fill="#FF724F"/>
<path d="M565.053 922.063H797.869C808.897 922.063 818.699 912.258 818.699 901.228V692.875C818.699 681.845 810.122 672.04 797.869 672.04H565.053C554.025 672.04 544.223 680.619 544.223 692.875V901.228C545.448 912.258 554.025 922.063 565.053 922.063Z" fill="#FF724F"/>
<path d="M892.211 922.063H1125.03C1136.05 922.063 1145.86 912.258 1145.86 901.228V692.875C1145.86 681.845 1137.28 672.04 1125.03 672.04H892.211C881.183 672.04 871.38 680.619 871.38 692.875V901.228C871.38 912.258 879.957 922.063 892.211 922.063Z" fill="#FF724F"/>
<path d="M1214.49 922.063H1447.3C1458.33 922.063 1468.13 912.258 1468.13 901.228V692.875C1468.13 681.845 1458.33 672.04 1447.3 672.04H1214.49C1203.46 672.04 1193.65 680.619 1193.65 692.875V901.228C1193.65 912.258 1203.46 922.063 1214.49 922.063Z" fill="#FF724F"/>
<path d="M1214.49 623.022H1447.3C1458.33 623.022 1468.13 614.443 1468.13 602.187V393.835C1468.13 382.805 1458.33 373 1447.3 373H1214.49C1203.46 373 1193.65 381.579 1193.65 393.835V602.187C1193.65 613.218 1203.46 623.022 1214.49 623.022Z" fill="#FF724F"/>
<path d="M1539.2 1219.88H1772.02C1783.05 1219.88 1792.85 1211.3 1792.85 1199.05V990.694C1792.85 979.664 1784.27 969.859 1772.02 969.859H1539.2C1528.17 969.859 1518.37 978.438 1518.37 990.694V1199.05C1519.6 1211.3 1528.17 1219.88 1539.2 1219.88Z" fill="#FF724F"/>
</svg>
