<svg width="2500" height="806" viewBox="0 0 2500 806" fill="none" xmlns="http://www.w3.org/2000/svg">
<path d="M1.05957 528.506H171.504V613.731H1.05957V528.506ZM256.719 528.506H427.056V613.731H256.719V528.506ZM0.927734 358.057H427.109V443.286H0.927734V358.057ZM1.05957 187.627H256.753V272.847H1.05957V187.627ZM341.948 187.627H427.168V272.847H341.948V187.627Z" fill="#FF724F"/>
<path d="M1664.38 187.134C1527.51 187.134 1456.82 283.926 1456.82 403.32C1456.82 522.725 1525.77 619.531 1664.38 619.531C1802.99 619.531 1871.94 522.725 1871.94 403.32C1871.95 283.926 1801.25 187.134 1664.38 187.134V187.134ZM1767.93 403.711C1767.83 480.488 1741.96 542.676 1664.38 542.676C1586.8 542.676 1560.92 480.493 1560.84 403.711V403.32C1560.92 326.548 1586.81 264.365 1664.38 264.365C1741.96 264.365 1767.83 326.548 1767.93 403.325V403.706V403.711ZM1051.53 613.726V15.9962C1051.53 15.9962 1130.37 4.79498 1136.47 3.97467C1143.4 3.03717 1152.59 7.96881 1152.59 17.7149V239.297C1168.95 223.74 1186.97 211.206 1206.6 201.65C1226.25 192.109 1249.3 187.329 1275.77 187.329C1298.69 187.329 1318.99 191.216 1336.73 198.999C1354.47 206.763 1369.27 217.681 1381.13 231.719C1393 245.781 1402.01 262.554 1408.14 282.061C1414.28 301.563 1417.35 323.047 1417.35 346.514V613.721H1316.27V346.509C1316.27 320.874 1310.34 301.021 1298.47 286.963C1286.61 272.92 1268.8 265.894 1245.06 265.894C1227.6 265.894 1211.24 269.849 1195.97 277.769C1180.69 285.679 1166.24 296.445 1152.59 310.093V613.726H1051.52H1051.53ZM2400.89 619.483C2331.33 619.483 2287.74 579.004 2287.74 503.491V279.683H2209.36C2209.36 279.683 2226.02 222.061 2227.33 217.524C2228.65 212.988 2232.1 208.12 2239.02 207.158L2287.65 200.376L2306.91 77.8272C2306.91 77.8272 2363.5 69.8487 2372.48 68.5108C2380.95 67.2413 2388.63 73.3448 2388.63 82.5733V200.376H2487.77V279.688H2388.63V500.479C2388.63 530.625 2406.99 542.144 2424.58 542.144C2435.33 542.144 2450.06 536.431 2461.05 531.338C2467.84 528.198 2478.36 530.527 2481.08 540.005C2483.48 548.403 2496.26 592.979 2496.26 592.979C2485.23 600.098 2450.38 619.492 2400.89 619.492V619.483ZM2153.81 281.006C2134.11 274.609 2097.08 264.365 2061.87 264.365C2025.98 264.365 1997.74 276.768 1997.74 306.602C1997.74 343.872 2058.6 354.722 2100.25 369.912C2128.1 380.068 2202.78 399.873 2202.78 480.195C2202.78 577.764 2121.76 619.478 2035.32 619.478C1948.88 619.478 1897.81 587.329 1897.81 587.329C1897.81 587.329 1911.22 539.966 1913.93 530.615C1916.39 522.197 1926.17 519.248 1932.4 521.641C1954.64 530.215 1994.82 542.134 2040.22 542.134C2086.2 542.134 2108.44 528.096 2108.44 498.174C2108.44 458.345 2046.36 446.172 2005.3 433.223C1977.02 424.307 1902.15 403.516 1902.15 315.176C1902.15 228.154 1978.56 187.329 2060.23 187.329C2129.36 187.329 2163.27 201.782 2188.6 214.688L2172.39 271.206C2169.91 279.912 2162.77 283.906 2153.81 281.006H2153.81ZM1012.07 201.738C1012.07 192.324 1004.03 186.934 996.352 187.813C962.436 191.699 938.237 207.661 922.583 222.52C891.841 198.438 849.165 186.934 801.274 186.934C705.254 186.934 630.229 233.281 630.229 334.331C630.229 392.344 654.927 432.319 694.141 455.85C665.015 469.634 645.62 498.887 645.62 527.647C645.62 575.752 683.623 590.816 683.623 590.816C683.623 590.816 617.168 623.071 617.168 687.593C617.168 770.2 693.188 803.599 786.074 803.599C919.966 803.599 1012.08 748.296 1012.08 646.753C1012.08 584.258 964.263 549.756 860.049 545.654C798.203 543.213 758.144 540.991 748.223 537.705C735.107 533.35 728.662 522.852 728.662 511.26C728.662 498.467 739.17 486.279 755.742 477.91C770.195 480.474 785.444 481.738 801.284 481.738C897.388 481.738 972.329 435.527 972.329 334.341C972.329 309.8 967.905 288.501 959.849 270.303C973.97 262.769 991.343 257.466 1012.08 257.466C1012.07 257.466 1012.07 210.322 1012.07 201.738V201.738ZM747.451 614.248C747.451 614.248 797.876 616.152 848.262 618.491C904.873 621.108 922.51 633.306 922.51 662.617C922.51 698.428 873.315 733.262 804.57 733.262C739.312 733.262 706.719 710.557 706.719 672.759C706.719 651.069 718.169 626.807 747.451 614.248V614.248ZM801.455 411.201C755.967 411.201 720.479 387.036 720.479 334.331C720.479 281.626 756.001 257.461 801.455 257.461C846.919 257.461 882.437 281.558 882.437 334.331C882.437 387.109 846.963 411.201 801.455 411.201Z" fill="#FF724F"/>
</svg>
