<svg width="1771" height="2199" viewBox="0 0 1771 2199" fill="none" xmlns="http://www.w3.org/2000/svg">
<path d="M161.167 1905.74L0 98H1771L1609.66 1905.45L884.414 2106.51L161.167 1905.74Z" fill="#FF724F"/>
<path d="M885.498 1952.83L1471.53 1790.36L1609.41 245.81H885.498V1952.83Z" fill="#FF724F"/>
<path d="M885.498 916.272H592.115L571.853 689.236H885.498V467.522H329.551L334.858 527.005L389.35 1137.98H885.498V916.272ZM885.498 1492.08L884.531 1492.34L637.604 1425.66L621.82 1248.84H399.256L430.318 1596.96L884.477 1723.04L885.498 1722.75V1492.08Z" fill="#EBEBEB"/>
<path d="M884.736 916.272V1137.98H1157.74L1132.01 1425.52L884.736 1492.27V1722.93L1339.25 1596.96L1342.59 1559.5L1394.69 975.808L1400.1 916.272H1340.35H884.736ZM884.736 467.522V689.236H1420.27L1424.72 639.402L1434.82 527.005L1440.12 467.522H884.736Z" fill="white"/>
</svg>
