<svg width="2500" height="1000" viewBox="0 0 2500 1000" fill="none" xmlns="http://www.w3.org/2000/svg">
<path d="M0 0V68.4175H486.62V0H0ZM555.565 0V68.4175H1249.02C1249.02 68.4175 1178.19 0 1084.38 0H555.565ZM1385.06 0V68.4175H1804.59L1779.69 0H1385.06ZM2105.37 0L2080.47 68.4175H2496.19V0H2105.37ZM0 133.055V201.472H486.62V133.055H0ZM555.565 133.153V201.475H1329.49C1329.49 201.475 1320.45 148.818 1304.69 133.153H555.565ZM1385.06 133.153V201.475H1850.59L1827.54 133.153H1385.06ZM2055.57 133.153L2032.52 201.475H2496.19V133.153H2055.57V133.153ZM139.843 266.11V334.625H350.585V266.11H139.843V266.11ZM695.41 266.11V334.625H906.152V266.11H695.41V266.11ZM1111.13 266.11V334.625H1321.88C1321.88 334.625 1335.25 298.442 1335.25 266.11H1111.13V266.11ZM1524.9 266.11V334.625H1898.54L1873.63 266.11H1524.9V266.11ZM2009.67 266.11L1984.67 334.625H2360.16V266.11H2009.67V266.11ZM139.843 399.265V467.682H350.585V399.265H139.843V399.265ZM695.41 399.265V467.682H1233.69C1233.69 467.682 1278.72 432.577 1293.07 399.265H695.41ZM1524.9 399.265V467.682H1735.64V429.598L1749.02 467.682H2135.06L2149.41 429.598V467.682H2360.16V399.265H1964.55L1943.55 457.215L1922.46 399.265H1524.9ZM139.843 532.32V600.737H350.585V532.32H139.843ZM695.41 532.32V600.737H1293.07C1278.72 567.535 1233.69 532.32 1233.69 532.32H695.41ZM1524.9 532.32V600.737H1735.64V532.32H1524.9ZM1773.93 532.32L1799.41 600.737H2088.87L2113.09 532.32H1773.93ZM2149.41 532.32V600.737H2360.16V532.32H2149.41ZM139.843 665.375V733.79H350.585V665.375H139.843ZM695.41 665.375V733.79H906.152V665.375H695.41ZM1111.13 665.375V733.79H1335.25C1335.25 701.502 1321.87 665.375 1321.87 665.375H1111.13V665.375ZM1524.9 665.375V733.79H1735.64V665.375H1524.9ZM1821.78 665.375L1846.48 733.79H2040.53L2065.43 665.375H1821.78ZM2149.41 665.375V733.79H2360.16V665.375H2149.41ZM3.8075 798.43V866.945H490.428V798.43H3.8075ZM555.565 798.43V866.945H1304.69C1320.45 851.258 1329.49 798.43 1329.49 798.43H555.565V798.43ZM1388.87 798.43V866.945H1735.64V798.43H1388.87ZM1869.73 798.43L1895.12 866.945H1993.85L2017.67 798.43H1869.73ZM2149.41 798.43V866.945H2500V798.43H2149.41ZM3.8075 931.582V1000H490.428V931.582H3.8075ZM555.565 931.582V999.902H1084.38C1178.19 999.902 1249.02 931.582 1249.02 931.582H555.565ZM1388.87 931.582V1000H1735.64V931.582H1388.87ZM1917.87 931.582L1942.29 999.808L1946.48 999.902L1971.29 931.582H1917.87V931.582ZM2149.41 931.582V1000H2500V931.582H2149.41Z" fill="#FF724F"/>
</svg>
