<svg width="2500" height="2500" viewBox="0 0 2500 2500" fill="none" xmlns="http://www.w3.org/2000/svg">
<path d="M0 0H2500V2500H0V0Z" fill="#FF724F"/>
<path d="M657.344 2089.18L848.652 1973.4C885.566 2038.84 919.141 2094.21 999.678 2094.21C1076.87 2094.21 1125.56 2064.01 1125.56 1946.55V1147.74H1360.49V1949.87C1360.49 2193.2 1217.85 2303.96 1009.75 2303.96C821.807 2303.96 712.715 2206.63 657.334 2089.16L657.344 2089.18ZM1488.1 2064L1679.38 1953.25C1729.75 2035.49 1795.2 2095.9 1910.98 2095.9C2008.33 2095.9 2070.4 2047.23 2070.4 1980.1C2070.4 1899.55 2006.63 1871.02 1899.23 1824.04L1840.51 1798.85C1671.01 1726.71 1558.57 1636.08 1558.57 1444.78C1558.57 1268.56 1692.82 1134.31 1902.6 1134.31C2051.95 1134.31 2159.36 1186.34 2236.54 1322.27L2053.61 1439.75C2013.33 1367.59 1969.72 1339.06 1902.59 1339.06C1833.78 1339.06 1790.15 1382.7 1790.15 1439.75C1790.15 1510.22 1833.78 1538.77 1934.46 1582.4L1993.19 1607.57C2192.9 1693.16 2305.33 1780.42 2305.33 1976.75C2305.33 2188.21 2139.2 2303.99 1916.01 2303.99C1697.85 2303.99 1556.88 2199.95 1488.09 2064.01" fill="white"/>
</svg>
