<svg width="2500" height="2500" viewBox="0 0 2500 2500" fill="none" xmlns="http://www.w3.org/2000/svg">
<path fill-rule="evenodd" clip-rule="evenodd" d="M1042.41 1319.4C1042.41 1319.4 982.693 1354.15 1084.95 1365.88C1208.86 1380.03 1272.15 1378 1408.66 1352.18C1408.66 1352.18 1444.6 1374.68 1494.77 1394.15C1188.67 1525.31 802.011 1386.56 1042.41 1319.4ZM1004.99 1148.24C1004.99 1148.24 937.999 1197.82 1040.34 1208.41C1172.71 1222.08 1277.2 1223.19 1458.11 1188.38C1458.11 1188.38 1483.09 1213.74 1522.4 1227.59C1152.36 1335.82 740.236 1236.11 1004.99 1148.24Z" fill="#FF724F"/>
<path fill-rule="evenodd" clip-rule="evenodd" d="M1320.28 857.859C1395.74 944.718 1300.5 1022.83 1300.5 1022.83C1300.5 1022.83 1492.02 923.992 1404.05 800.17C1321.93 684.752 1258.94 627.412 1599.92 429.675C1599.91 429.662 1064.66 563.303 1320.28 857.859Z" fill="#FF724F"/>
<path fill-rule="evenodd" clip-rule="evenodd" d="M1725.11 1446.01C1725.11 1446.01 1769.31 1482.46 1676.42 1510.64C1499.78 1564.14 941.112 1580.27 785.929 1512.77C730.185 1488.49 834.773 1454.83 867.677 1447.72C901.995 1440.31 921.58 1441.65 921.58 1441.65C859.545 1397.97 520.606 1527.45 749.445 1564.59C1373.45 1665.77 1886.95 1519.04 1725.11 1446.01ZM1071.13 970.877C1071.13 970.877 786.992 1038.39 970.528 1062.92C1048.05 1073.29 1202.47 1070.9 1346.42 1058.83C1464.03 1048.96 1582.08 1027.84 1582.08 1027.84C1582.08 1027.84 1540.64 1045.62 1510.61 1066.09C1222.02 1142 664.61 1106.64 825.098 1029.05C960.787 963.407 1071.13 970.877 1071.13 970.877V970.877ZM1580.9 1255.78C1874.23 1103.39 1738.61 956.909 1643.92 976.649C1620.77 981.487 1610.38 985.663 1610.38 985.663C1610.38 985.663 1619.02 972.149 1635.44 966.338C1822.73 900.517 1966.75 1160.52 1575.05 1263.49C1575.04 1263.49 1579.55 1259.42 1580.9 1255.78V1255.78Z" fill="#FF724F"/>
<path fill-rule="evenodd" clip-rule="evenodd" d="M1404.05 110.295C1404.05 110.295 1566.48 272.819 1249.96 522.656C996.13 723.142 1192.09 837.419 1249.88 968.037C1101.69 834.358 992.991 716.657 1065.91 607.141C1172.96 446.38 1469.59 368.419 1404.05 110.295V110.295Z" fill="#FF724F"/>
<path fill-rule="evenodd" clip-rule="evenodd" d="M1099.99 1668.87C1381.51 1686.87 1813.91 1658.87 1824.17 1525.63C1824.17 1525.63 1804.48 1576.14 1591.48 1616.2C1351.16 1661.44 1054.71 1656.17 878.948 1627.16C878.948 1627.16 914.965 1656.97 1099.99 1668.87V1668.87Z" fill="#FF724F"/>
<path fill-rule="evenodd" clip-rule="evenodd" d="M1811.16 1907.8H1802.6V1903H1825.7V1907.8H1817.14V1931.77H1811.16V1907.8ZM1857.26 1908.99H1857.15L1848.65 1931.76H1844.74L1836.29 1908.99H1836.18V1931.76H1830.5V1902.99H1838.84L1846.67 1923.34L1854.51 1902.99H1862.77V1931.76H1857.27V1908.99H1857.26V1908.99ZM1053.86 2177.9C1027.31 2200.9 999.242 2213.85 974.042 2213.85C938.142 2213.85 918.661 2192.28 918.661 2157.77C918.661 2120.4 939.517 2093.06 1022.99 2093.06H1053.85V2177.9H1053.86V2177.9ZM1127.14 2260.57V2004.65C1127.14 1939.24 1089.84 1896.08 999.917 1896.08C947.454 1896.08 901.463 1909.03 864.072 1925.54L874.837 1970.87C904.291 1960.06 942.37 1950.03 979.749 1950.03C1031.55 1950.03 1053.85 1970.87 1053.85 2014.02V2046.38H1027.96C902.125 2046.38 845.343 2095.2 845.343 2168.6C845.343 2231.84 882.761 2267.79 953.2 2267.79C998.477 2267.79 1032.3 2249.1 1063.88 2221.75L1069.63 2260.57H1127.14V2260.57ZM1371.71 2260.57H1280.34L1170.31 1902.59H1250.13L1318.42 2122.57L1333.62 2188.66C1368.06 2093.06 1392.51 1996.01 1404.74 1902.59H1482.35C1461.58 2020.46 1424.14 2149.87 1371.71 2260.57V2260.57ZM1722.37 2177.9C1695.74 2200.9 1667.68 2213.85 1642.53 2213.85C1606.63 2213.85 1587.17 2192.28 1587.17 2157.77C1587.17 2120.4 1608.04 2093.06 1691.46 2093.06H1722.37V2177.9V2177.9ZM1795.68 2260.57V2004.65C1795.68 1939.24 1758.26 1896.08 1668.43 1896.08C1615.92 1896.08 1569.94 1909.03 1532.55 1925.54L1543.31 1970.87C1572.77 1960.06 1610.92 1950.03 1648.31 1950.03C1700.04 1950.03 1722.36 1970.87 1722.36 2014.02V2046.38H1696.47C1570.63 2046.38 1513.88 2095.2 1513.88 2168.6C1513.88 2231.84 1551.22 2267.79 1621.67 2267.79C1666.99 2267.79 1700.76 2249.1 1732.42 2221.75L1738.19 2260.57H1795.68V2260.57ZM764.996 2321.39C744.114 2351.91 710.341 2376.07 673.416 2389.71L637.23 2347.09C665.362 2332.65 689.46 2309.34 700.679 2287.66C710.341 2268.33 714.375 2243.48 714.375 2184V1775.26H792.258V2178.36C792.258 2257.92 785.903 2290.07 764.996 2321.39V2321.39Z" fill="#FF724F"/>
</svg>
