<svg width="2500" height="704" viewBox="0 0 2500 704" fill="none" xmlns="http://www.w3.org/2000/svg">
<g clip-path="url(#clip0)">
<path d="M714.496 274.995L714.501 274.964L694.532 345.721L714.496 274.995ZM817.178 428.601L795.179 428.475L817.178 428.601ZM811.521 534.274H811.541L679.731 534.754L811.521 534.274ZM839.157 428.727L817.148 428.601L839.157 428.727ZM823.073 525.292L846.033 437.729L823.073 525.312V525.292ZM1308.37 122.04L1265.61 323.11L1308.37 122.04ZM1198.43 122.04L1165.96 272.247L1198.43 122.024V122.04V122.04Z" fill="#6BA0AB"/>
<path d="M1301.05 112.992H1209.58C1204.51 112.992 1199.48 117.064 1198.39 122.024L1165.92 272.242L1133.45 422.464C1132.37 427.424 1127.34 431.481 1122.27 431.481H1057.53C993.486 431.481 1000.9 387.174 1014.02 326.495L1014.41 324.661L1015.85 317.013C1015.94 316.518 1016.04 316.023 1016.12 315.573L1019.04 300L1022.17 283.304C1023.13 278.273 1024.57 270.913 1025.52 266.291L1040.28 194.17L1055.05 122.045C1056.07 117.074 1052.74 112.987 1047.66 112.987H953.781C948.704 112.987 943.678 117.074 942.642 122.035L922.457 217.801L902.276 313.558C902.256 313.598 902.251 313.664 902.246 313.704L900.366 322.605C877.114 428.758 883.282 529.975 1009.64 533.142C1011.71 533.208 1013.31 533.223 1013.31 533.223H1211.66C1216.73 533.223 1221.75 529.147 1222.81 524.176L1265.59 323.12L1308.36 122.045C1309.41 117.064 1306.12 112.997 1301.05 112.992V112.992ZM1665.91 432.526C1671 432.526 1674.32 436.608 1673.3 441.563L1664.41 484.981L1665.91 432.526ZM1655.55 528.414L1664.42 484.976L1655.54 528.424L1655.55 528.414ZM1644.41 537.542L1644.45 537.532C1617.54 537.749 1536.66 538.361 1475.86 538.361C1549.85 538.366 1644.4 537.542 1644.41 537.542V537.542ZM1421.3 376.621C1421.22 371.873 1426.64 363.679 1431.72 363.679L1420.27 363.492C1415.14 415.25 1421.3 376.621 1421.3 376.621V376.621Z" fill="#FF724F"/>
<path d="M1484.2 538.356C1483.62 538.356 1483.01 538.356 1482.41 538.366C1483.01 538.356 1483.62 538.356 1484.2 538.356ZM1665.91 432.526C1671 432.526 1674.32 436.608 1673.3 441.564L1664.41 484.981L1662.97 492.059L1665.91 432.526ZM1527.5 538.24H1527.13H1527.5ZM1505.04 538.315H1503.73H1505.04ZM1498.19 538.335C1497.46 538.335 1496.75 538.335 1496.04 538.356C1496.75 538.335 1497.46 538.335 1498.19 538.335ZM1491.22 538.356H1489.33H1491.22ZM1503.74 538.315L1498.19 538.325L1503.74 538.315ZM1644.48 537.537C1624.76 537.689 1576.04 538.063 1527.47 538.265C1576.01 538.068 1624.74 537.689 1644.48 537.537ZM1655.55 528.429L1662.99 492.064L1655.54 528.46L1655.55 528.429ZM1496.05 538.356H1491.22H1496.05ZM1482.41 538.366H1475.88H1482.41ZM1489.31 538.356H1484.17H1489.31ZM151.444 377.707L165.649 314.73L149.408 386.724L133.819 460.057L147.483 395.776C148.529 390.796 150.322 382.663 151.444 377.707V377.707ZM321.483 111.932H221.044C215.962 111.932 210.895 115.988 209.764 120.933L200.242 162.972L190.719 205.026C189.598 209.972 192.831 214.028 197.918 214.028H299.14C304.212 214.028 309.258 209.972 310.35 205.011L319.553 162.972L328.757 120.964V120.954C329.833 115.988 326.57 111.932 321.483 111.932V111.932ZM299.625 251.773V251.763L270.165 388.048L299.625 251.773V251.773ZM7.83924 703.348C7.83924 703.348 58.4706 704 90.6589 704C66.2096 704 25.8328 703.545 7.79883 703.338L7.84934 703.348H7.83924V703.348ZM179.849 251.753L165.629 314.73L179.849 251.753Z" fill="#FF724F"/>
<path d="M292.36 242.741H191.123C186.046 242.741 180.974 246.797 179.853 251.758L165.633 314.74L151.428 377.722C150.307 382.673 148.518 390.816 147.468 395.777L133.803 460.057L120.149 524.358C119.088 529.303 116.906 537.315 115.279 542.144C115.279 542.144 96.3714 598.418 64.5721 597.772C63.2485 597.754 61.925 597.73 60.6016 597.701C45.1995 597.398 33.0911 597.181 33.0911 597.181H33.0708C28.0042 597.095 22.9072 601.075 21.7201 605.985L11.223 650.116L0.736069 694.22C-0.440935 699.161 2.74152 703.212 7.78799 703.303C25.8169 703.525 66.1987 703.995 90.6481 703.995C170.068 703.995 211.93 659.971 238.769 533.37L270.179 388.033L299.64 251.748C300.71 246.802 297.427 242.741 292.36 242.741V242.741ZM1730.42 533.208C1725.35 533.208 1722.07 529.137 1723.14 524.166L1799.29 167.458L1730.42 533.208ZM1836.26 524.156L1867.08 371.898L1836.26 524.156Z" fill="#FF724F"/>
<path d="M1724.22 528.697C1723.6 526.212 1723.97 520.115 1725.04 515.139L1761.19 345.822L1723.11 524.166C1722.04 529.137 1725.33 533.218 1730.38 533.218H1739.63C1734.58 533.218 1724.84 531.182 1724.22 528.697V528.697ZM1830.24 531.182C1827.47 532.299 1821.05 533.208 1815.96 533.208H1825.21C1830.29 533.208 1835.28 529.137 1836.27 524.156L1838.1 515.103C1837.11 520.079 1833.01 530.051 1830.24 531.182V531.182ZM1851.67 448.029L1865.25 380.834C1865.25 380.875 1865.24 380.94 1865.23 380.965L1851.67 448.029ZM2152.16 191.352L2156.36 208.683C2157.52 213.644 2154.31 217.67 2149.24 217.685L2152.16 191.352ZM1838.11 515.109L1851.68 448.034L1838.11 515.109ZM2147.99 173.601L2152.14 191.357L2147.99 173.601ZM1865.26 380.839C1866.27 375.868 1867.94 367.811 1869 362.871L1883.52 294.857L1867.07 371.908L1865.26 380.839ZM1800.52 161.613C1799.5 166.412 1798.21 172.474 1797.33 176.49L1761.22 345.822L1799.29 167.463L1800.52 161.613Z" fill="#6BA0AB"/>
<path d="M2156.33 208.683L2152.14 191.352L2147.99 173.596L2145.88 164.609C2137.66 132.663 2113.54 114.225 2061.13 114.225L1979.54 114.134L1904.4 114.048H1819.81C1814.74 114.048 1809.71 118.105 1808.67 123.08L1804.93 140.751L1800.53 161.613L1799.3 167.458L1761.23 345.817L1725.09 515.134C1724.02 520.1 1723.65 526.197 1724.27 528.687C1724.88 531.183 1734.62 533.213 1739.73 533.213H1816.02C1821.1 533.213 1827.52 532.284 1830.29 531.178C1833.05 530.051 1837.14 520.084 1838.16 515.099L1851.74 448.025L1865.31 380.971C1865.32 380.94 1865.32 380.88 1865.34 380.86L1867.15 371.913L1883.59 294.878L1898.12 226.824C1899.2 221.878 1904.2 217.837 1909.27 217.822L2149.3 217.705C2154.29 217.675 2157.49 213.644 2156.33 208.683V208.683Z" fill="#FF724F"/>
<path d="M2465.33 51.96C2460.25 51.9953 2451.94 52.0257 2446.86 52.0257H2370.03C2364.95 52.0257 2358.44 55.4607 2355.6 59.6534L2185.72 308.537C2182.84 312.74 2179.55 312.113 2178.45 307.168L2165.94 252.334C2164.79 247.378 2159.73 243.332 2154.66 243.332H2045.45C2040.36 243.332 2037.34 247.317 2038.74 252.202L2087.68 423.641C2089.05 428.526 2089.17 436.573 2087.91 441.462L2066.57 524.444C2065.29 529.369 2068.42 533.39 2073.5 533.39H2181.44C2186.52 533.39 2191.71 529.364 2192.97 524.444L2214.31 441.462C2215.57 436.542 2219.1 429.192 2222.18 425.141L2497.99 59.1079C2501.04 55.0515 2499.39 51.7478 2494.31 51.7832L2465.33 51.96V51.96ZM1597.66 266.675L1597.65 266.569C1597.01 272.08 1591.9 276.126 1586.83 276.126H1448.39C1443.6 276.126 1441.14 272.868 1441.87 268.857C1441.91 268.741 1441.94 268.64 1441.98 268.539C1441.98 268.539 1441.94 268.549 1441.87 268.584C1441.92 268.423 1441.92 268.276 1441.97 268.12C1441.97 268.12 1442.25 267.145 1442.6 265.766C1455.82 230.607 1482.76 207.532 1533.4 207.532C1590.4 207.522 1601.53 235.365 1597.66 266.675ZM1557.03 106.85C1379.3 106.85 1337.19 214.73 1313.56 323.616C1289.92 434.602 1291.97 538.366 1475.88 538.366H1482.41C1482.99 538.356 1483.59 538.356 1484.17 538.356H1496.06C1496.79 538.335 1497.47 538.335 1498.21 538.335L1503.77 538.325H1505.07C1512.34 538.315 1519.74 538.275 1527.13 538.25H1527.5C1576.06 538.058 1624.79 537.699 1644.51 537.532C1649.55 537.436 1654.51 533.39 1655.55 528.455L1662.99 492.059L1664.44 484.986L1673.33 441.574C1674.35 436.608 1671.03 432.526 1665.94 432.526H1500.61C1434.84 432.526 1415.31 415.053 1422.51 363.679H1686.82L1686.79 363.709C1686.86 363.709 1686.91 363.679 1686.97 363.679C1691.17 363.583 1695.06 360.709 1696.6 356.839C1696.89 356.102 1697.12 355.324 1697.24 354.526L1697.21 354.556C1736.42 206.547 1725.15 106.855 1557.03 106.85V106.85ZM716.997 266.109L714.496 274.964L714.491 274.995L694.533 345.721L674.584 416.437C673.205 421.322 667.926 425.328 662.834 425.328H557.197C477.07 425.328 457.561 362.659 477.07 270.216C496.574 175.672 534.829 116.892 613.688 110.947C721.462 102.814 743.022 178.617 716.997 266.109V266.109ZM789.446 419.882C789.446 419.882 839.249 298.959 850.559 229.102C866.047 135.603 819.229 0 638.405 0C458.601 0 380.53 129.465 350.736 270.206C320.948 411.967 359.976 536.28 538.749 535.274L679.777 534.749L811.592 534.264C816.668 534.223 821.856 530.192 823.155 525.292L846.114 437.709C847.392 432.794 844.285 428.753 839.213 428.733L817.209 428.616L795.209 428.5C790.895 428.455 788.42 425.666 788.946 421.969C789.035 421.262 789.215 420.569 789.481 419.908H789.446V419.882V419.882Z" fill="#FF724F"/>
<path d="M1679.49 338.947C1679.49 342.291 1676.78 345.014 1673.43 345.014C1670.08 345.014 1667.37 342.291 1667.37 338.947C1667.37 335.603 1670.08 332.9 1673.43 332.9C1676.78 332.895 1679.49 335.598 1679.49 338.947Z" fill="#6BA0AB"/>
</g>
<defs>
<clipPath id="clip0">
<rect width="2500" height="704" fill="white"/>
</clipPath>
</defs>
</svg>
