<svg width="2500" height="2500" viewBox="0 0 2500 2500" fill="none" xmlns="http://www.w3.org/2000/svg">
<path fill-rule="evenodd" clip-rule="evenodd" d="M946.339 684.181L942.591 428.767L1094.57 339.756L1320.23 187.789L1412.99 184.015L1509.51 287.76L1561.51 632.47L1491.02 758.446L1198.3 750.923L946.339 684.181Z" fill="white"/>
<path fill-rule="evenodd" clip-rule="evenodd" d="M646.128 1414.35L723.856 1195.62L875.835 1014.16L953.563 858.43L987.077 806.693L1542.71 721.456L1653.97 895.692L1965.18 1640.31L1857.66 1773.5L1575.96 2244.5L1509.51 2259.22L994.314 2273.95L634.87 1873.77L575.624 1540.33L646.128 1414.35V1414.35Z" fill="white"/>
<path fill-rule="evenodd" clip-rule="evenodd" d="M1357.52 847.444C1357.52 847.444 1339.02 843.683 1390.75 832.412C1442.76 821.44 1443.03 810.455 1457.48 795.423C1472.22 780.689 1479.75 747.162 1479.75 710.185C1479.75 673.209 1498.24 565.715 1494.47 536.248C1491.02 506.482 1427.72 395.526 1402.01 380.507C1376.01 365.773 1087.06 339.756 1087.06 339.756L998.062 410.272L931.32 472.968L946.339 673.208C946.339 673.208 927.559 736.19 931.32 761.909C935.081 787.913 972.343 817.679 987.077 832.412C1001.81 847.444 1057.3 906.963 1075.78 925.159C1094.56 943.654 1098.32 962.149 1142.52 947.402C1187.02 932.669 1213.02 932.669 1246.55 906.664C1279.78 880.66 1357.52 847.444 1357.52 847.444V847.444Z" fill="white"/>
<path fill-rule="evenodd" clip-rule="evenodd" d="M1187.03 532.5C1198.3 502.734 1213.04 447.262 1238.76 428.767C1264.75 410.273 1320.53 394.968 1353.77 399.002C1387.28 402.763 1449.98 435.992 1465 461.983C1479.75 487.987 1479.75 591.72 1479.75 591.72L1472.22 676.957L1420.5 673.209L1309.27 628.696H1290.78C1290.78 628.696 1272.28 635.921 1216.51 606.453C1161.03 576.701 1175.76 562.252 1187.03 532.5V532.5ZM1068.57 613.976C1070.3 612.238 1073.77 609.929 1078.4 607.322C1100.93 594.897 1150.04 576.701 1150.04 576.701C1150.04 576.701 1198 454.772 1157.27 406.511C1116.81 358.264 1027.83 365.773 1027.83 365.773C1027.83 365.773 931.618 421.258 935.081 443.501C938.842 465.757 942.591 543.472 946.352 554.457C949.828 565.728 964.847 684.194 964.847 684.194L998.075 669.46L1046.34 632.471C1046.32 632.471 1057.58 625.246 1068.57 613.976V613.976Z" fill="white"/>
<path fill-rule="evenodd" clip-rule="evenodd" d="M1776.2 1733.05L1829.93 1737.09C1837.74 1737.68 1845.53 1737.95 1853.34 1738.25C1893.21 1739.69 1928.19 1745.76 1965.46 1750.39C1990.04 1753.29 2030.77 1768.89 2033.66 1799.8C2037.71 1845.47 2024.41 1895.73 2063.11 1914.52C2102.71 1941.39 2191.11 2003.52 2191.11 2003.52L2217.13 2051.47L2139.41 2121.98L1757.71 2351.69L1583.76 2292.46V2151.74L1590.99 1962.78L1572.49 1792.29L1601.97 1725.55L1676.23 1703.29L1776.2 1733.05V1733.05ZM672.43 1649.83C668.669 1646.36 601.058 1666.32 596.726 1667.17C565.235 1671.79 525.366 1693.46 525.366 1727.86C525.366 1745.48 523.927 1763.69 515.834 1779.58C509.478 1791.99 495.03 1810.77 495.315 1814.83C490.4 1828.41 481.451 1847.48 469.026 1855.57C454.577 1857.02 390.429 1862.81 390.429 1862.81H334.659L301.43 1903.25L327.435 2011.04L319.912 2095.99L294.193 2192.49L356.889 2225.72L831.336 2351.69L938.829 2318.46L994.301 2181.22L983.03 2129.49L931.32 2025.76C931.32 2025.75 705.944 1698.38 672.43 1649.83V1649.83Z" fill="white"/>
<path fill-rule="evenodd" clip-rule="evenodd" d="M913.979 486.833C906.185 228.242 1007.02 114.095 1216.5 110.347C1425.7 106.3 1556.88 216.673 1583.75 361.441C1610.33 505.911 1595.02 696.32 1648.47 795.15C1701.65 894.252 1735.74 970.242 1827.34 1084.38C1918.63 1198.51 1975.55 1314.67 2002.16 1455.66C2029 1596.38 2044.05 1662.84 1975.55 1735.35C1907.09 1807.58 1785.44 1925.48 1694.12 1792.28C1648.2 1725.54 1643.28 1642.61 1720.72 1624.99C1770.13 1613.43 1805.66 1617.19 1842.37 1636.25C1879.36 1655.33 1888.02 1646.36 1843.81 1613.43C1799.3 1580.48 1790.36 1610.82 1805.66 1557.66C1820.99 1504.48 1840.93 1408.84 1799.31 1303.67C1779.96 1255.14 1714.37 1122.22 1652.81 1089.56C1647.32 1086.39 1631.16 1079.75 1642.13 1093.33C1658.6 1113.84 1747.3 1244.44 1772.44 1322.16C1799.31 1405.68 1803.06 1485.43 1789.2 1535.98C1775.35 1586.84 1751.06 1607.06 1721.88 1607.06C1692.7 1607.06 1666.12 1620.92 1666.12 1553.89C1666.12 1486.57 1673.06 1385.14 1636.94 1299.32C1600.82 1213.8 1556.89 1154.85 1547.37 1118.73C1538.12 1082.61 1517.02 985.533 1473.4 930.347C1429.48 875.161 1410.41 839.04 1433.22 776.059C1456.05 713.363 1439 696.308 1393.35 683.014C1347.7 669.732 1286.73 650.654 1271.71 620.032C1256.39 589.696 1265.94 528.725 1300.04 513.706C1334.41 498.389 1391.33 519.192 1393.35 563.121C1395.38 606.751 1374.28 629.578 1380.09 639.111C1385.86 648.644 1416.18 663.961 1431.51 646.919C1446.53 629.578 1450.59 576.402 1435.26 527C1419.93 477.585 1412.43 443.203 1357.23 431.932C1302.06 420.363 1277.21 424.124 1250.62 458.507C1224.03 492.604 1212.49 547.791 1220.29 587.958C1227.8 627.827 1212.48 605 1185.9 602.977C1159.32 601.239 1166.84 599.216 1140.25 601.239C1113.66 602.977 1123.21 585.922 1121.17 557.324C1119.43 528.712 1115.69 469.778 1075.52 446.951C1035.64 424.124 967.168 450.712 968.893 546.066C970.917 641.134 1003.28 686.775 1022.35 652.392C1041.42 618.294 1031.89 635.35 1012.82 620.032C993.756 605.013 980.462 542.019 1001.27 523.239C1022.35 504.173 1046.92 504.173 1060.5 515.444C1073.79 527 1094.6 565.144 1090.84 589.696C1087.07 614.546 1085.05 616.284 1060.5 633.612C1035.65 650.654 1026.12 665.971 997.518 684.751C968.906 703.817 957.649 747.746 980.475 759.016C1003.3 770.572 1005.33 768.549 1024.11 797.16C1043.17 825.772 1075.53 839.053 1155.57 825.772C1235.32 812.478 1268.25 793.412 1328.65 772.31C1372.58 757.278 1357.25 759.016 1372.58 741.974C1387.6 724.932 1412.45 749.484 1389.62 764.801C1366.79 780.118 1315.34 795.137 1277.22 808.431C1239.36 822.011 1195.45 859.869 1115.7 856.108C1035.66 852.347 1090.85 854.085 1066 852.347C1041.43 850.324 1029.88 854.085 1056.47 873.15C1083.34 892.229 1081.32 898 1104.14 905.51C1126.97 913.318 1157.31 913.318 1193.71 900.024C1229.83 886.444 1321.15 846.562 1349.75 827.497C1378.08 808.431 1400.89 833.281 1372.58 852.347C1343.98 871.412 1336.17 865.641 1309.58 882.683C1283.01 900.024 1233.59 928.337 1201.23 958.958C1168.87 989.295 1161.36 991.318 1121.2 993.056C1081.33 995.079 1056.48 953.187 1039.42 934.121C1022.38 915.043 1024.11 903.785 1003.3 880.945C982.499 858.118 980.475 863.605 976.714 888.455C972.953 913.305 944.355 976.001 919.504 1017.91C894.94 1059.8 892.916 1111.24 896.678 1147.36C900.439 1183.48 890.906 1187.23 862.593 1229.12C833.982 1271.01 786.305 1394.68 778.795 1434.56C771.273 1474.43 761.753 1556.49 765.501 1603.88C769.263 1651.56 755.969 1661.09 721.586 1628.73C687.488 1596.37 675.919 1560.25 677.956 1512.57C679.694 1471.83 685.18 1443.22 690.381 1428.2C695.581 1413.19 690.666 1402.78 679.693 1421.28C656.283 1461.72 655.129 1531.65 660.913 1556.5C666.4 1581.07 668.423 1624.98 731.132 1683.92C794.113 1742.86 885.42 1824.64 961.423 1879.82C1037.7 1935.01 1064.29 2003.49 951.89 2052.91C1022.39 2148.26 1060.52 2197.66 1029.9 2260.36C1092.88 2224.24 1068.62 2139.01 1038.28 2116.17C1007.65 2093.35 1026.14 2075.73 1052.73 2093.07C1079.32 2110.12 1088.85 2144.21 1193.74 2142.48C1298.33 2140.46 1411.02 2130.06 1474.03 2038.46C1536.72 1947.15 1548.86 2024.01 1533.53 2077.47C1518.51 2130.63 1480.94 2250.84 1539.89 2239.57C1547.41 2169.05 1564.74 2108.09 1564.74 2032.1C1564.74 1955.81 1572.26 1919.12 1566.49 1808.75C1560.69 1702.41 1606.64 1695.19 1654.03 1695.19C1701.71 1695.19 1686.38 1725.81 1656.06 1723.79C1625.44 1721.78 1593.34 1733.33 1591.34 1811.34C1589.31 1889.36 1591.34 1881.85 1604.61 1952.07C1617.9 2022.57 1619.94 2043.37 1608.38 2121.39C1597.11 2199.41 1587.56 2241.29 1639 2288.98C1690.14 2336.66 1768.14 2323.08 1808.32 2292.73C1848.19 2262.39 1924.19 2191.9 1992.66 2169.06C2061.44 2146.24 2133.68 2129.19 2171.8 2091.05C2209.67 2052.92 2200.13 2026.33 2160.24 2005.51C2120.38 1984.43 2082.22 1993.96 2051.89 1959.86C2021.25 1925.48 2006.23 1849.48 2017.5 1809.32C2029.05 1769.45 2042.35 1786.49 2042.35 1815.11C2042.35 1843.7 2044.1 1870.29 2072.7 1906.4C2101.3 1942.52 2127.87 1959.86 2173.54 1988.17C2219.19 2016.79 2247.79 2062.44 2190.58 2102.59C2133.66 2142.46 2101.28 2165.3 2053.61 2184.37C2006.22 2203.45 1928.21 2249.09 1880.51 2296.49C1832.84 2344.17 1806.26 2386.06 1712.94 2386.06C1619.9 2386.06 1577.14 2363.52 1549.41 2308.03C1530.33 2269.9 1520.78 2275.69 1477.17 2273.66C1433.24 2271.93 1286.74 2269.9 1172.62 2271.93C1058.49 2273.66 1020.36 2292.73 968.919 2334.62C917.779 2376.51 898.701 2408.89 801.622 2376.51C704.544 2344.14 653.105 2308.03 508.635 2279.44C363.867 2250.84 441.893 2264.12 354.334 2245.05C266.788 2226.27 272.56 2184.37 284.129 2150C295.399 2115.9 323.998 2062.44 299.148 1992.23C274.583 1921.72 284.129 1849.49 350.573 1849.49C417.315 1849.49 480.024 1862.78 506.599 1775.22C533.187 1687.68 540.982 1756.16 533.187 1778.98C525.678 1801.81 521.916 1864.51 462.969 1874.05C404.021 1883.57 390.74 1870.29 354.321 1870.29C318.213 1870.29 303.181 1895.14 321.961 1937.03C341.027 1978.91 362.116 2022.56 358.368 2058.68C354.321 2094.79 350.56 2108.09 323.985 2142.46C297.397 2176.56 301.158 2193.9 348.835 2205.17C396.213 2216.74 482.034 2239.55 561.785 2258.63C641.822 2277.4 647.606 2277.4 786.292 2313.82C925.276 2349.93 963.42 2285.21 974.691 2207.19C986.247 2129.17 932.798 2054.92 883.384 1980.65C833.969 1906.39 780.78 1820.9 716.048 1742.88C651.329 1664.86 613.185 1659.08 580.825 1676.13C548.452 1693.47 542.681 1689.71 540.943 1645.8C538.92 1602.17 535.158 1573.57 571.279 1508.84C607.4 1444.12 639.76 1373.6 677.904 1265.25C716.035 1156.9 750.132 1135.81 814.864 1042.48C879.596 949.451 850.985 985.559 896.639 922.863C942.292 859.882 928.998 871.425 925.25 772.323C921.489 673.494 917.741 616.284 913.979 486.833V486.833ZM732.234 1260.62C742.065 1272.48 755.93 1244.45 770.378 1233.76C776.609 1228.14 781.31 1221.03 784.039 1213.09C786.768 1205.16 787.436 1196.66 785.981 1188.39C784.541 1179.44 770.08 1182.32 767.2 1185.5C758.251 1194.45 760.262 1208.91 753.906 1221.34C746.682 1236.36 722.416 1248.5 732.234 1260.62V1260.62ZM1550.24 863.034C1570.76 880.374 1583.47 895.406 1594.72 869.687C1606.31 843.968 1606.31 833.567 1578.56 823.165C1551.11 812.465 1538.69 801.207 1526.26 787.044C1513.84 772.596 1509.51 797.16 1519.62 821.142C1532.03 850.622 1539.25 854.085 1550.24 863.034V863.034ZM1121.44 626.971C1107.28 624.079 1090.24 625.233 1080.69 636.504C1076.93 640.265 1078.67 650.952 1085.31 653.845C1093.97 657.606 1099.76 648.942 1101.5 642.288C1102.37 639.396 1103.52 635.648 1106.41 634.779C1110.17 632.756 1115.66 634.494 1119.71 632.756C1124.34 631.018 1122.6 626.971 1121.44 626.971V626.971ZM1188.77 629.578C1194.55 638.242 1204.96 638.242 1213.62 642.003C1218.24 644.026 1227.78 646.919 1230.66 640.265C1237.32 619.176 1208.7 625.817 1195.41 625.817C1192.53 625.817 1185.88 624.961 1188.77 629.578ZM1327.48 537.402C1340.48 537.973 1358.1 561.098 1359.83 587.971C1360.1 592.018 1371.1 591.719 1373.41 587.686C1379.49 576.999 1375.16 565.144 1372.27 552.434C1369.93 542.032 1357.52 531.345 1347.12 526.715C1340.18 523.239 1332.95 522.098 1323.71 523.239C1321.4 524.406 1313.32 536.533 1327.48 537.402V537.402ZM1044.01 530.761C1032.16 531.617 1036.5 540.865 1037.08 548.374C1053.55 557.622 1054.99 578.425 1058.45 594.897C1058.73 601.252 1068.27 598.373 1069.14 596.35C1076.36 583.056 1067.4 568.037 1064.23 552.434C1061.34 544.341 1055.86 535.093 1048.33 529.607C1047.19 528.453 1045.16 530.761 1044.01 530.761ZM1407.49 239.214C1395.64 229.681 1377.14 225.92 1371.67 241.523C1365.9 254.817 1368.19 268.396 1365 282.844C1365 287.462 1359.23 288.616 1356.07 292.948C1351.44 298.434 1352.59 305.373 1354.9 307.396C1365.9 318.667 1386.1 296.411 1400.85 288.616C1411.82 281.677 1427.7 290.639 1439.86 282.844C1443.31 280.536 1444.47 275.037 1441.01 270.705C1433.21 257.125 1419.63 249.331 1407.49 239.214Z" fill="#FF724F"/>
<path fill-rule="evenodd" clip-rule="evenodd" d="M1750.18 1752.12C1751.93 1744.32 1755.95 1729.01 1763.47 1726.7C1766.08 1725.83 1768.39 1726.99 1769.24 1729.6C1770.97 1734.5 1765.77 1762.54 1767.8 1768.89C1770.11 1775.53 1777.91 1774.67 1783.41 1772.94C1796.4 1768.6 1803.93 1753.29 1803.34 1751.85C1803.34 1751.27 1803.04 1751.27 1802.49 1751.27C1800.46 1751.85 1798.71 1759.08 1792.94 1760.79C1789.19 1761.96 1786.3 1761.37 1785.13 1757.62C1783.99 1753.58 1788.91 1724.68 1786.57 1718.03C1784.57 1711.39 1777.91 1709.65 1771.55 1711.67C1757.39 1716.3 1751.33 1737.96 1747.58 1750.68H1747.29L1749.31 1720.92L1731.68 1726.7L1730.83 1788.25L1747.3 1782.75C1747.6 1772.06 1748.16 1759.92 1750.18 1752.12V1752.12ZM1826.48 1758.76C1840.62 1754.15 1846.97 1737.39 1846.39 1735.35C1846.12 1734.78 1845.83 1734.49 1845.25 1734.49C1844.08 1735.07 1841.5 1744.6 1833.39 1747.2C1829.92 1748.36 1826.75 1747.48 1825.9 1745.19C1824.73 1741.71 1825.6 1735.65 1825.6 1730.44L1826.18 1702.7L1845.53 1696.34L1845.26 1689.69L1825.91 1696.04L1826.77 1669.75L1809.44 1679.58L1808.56 1738.23C1808.56 1744.59 1808 1750.08 1809.14 1752.98C1811.44 1760.5 1819.24 1761.37 1826.48 1758.76V1758.76Z" fill="#FF724F"/>
</svg>
