<svg width="2500" height="1733" viewBox="0 0 2500 1733" fill="none" xmlns="http://www.w3.org/2000/svg">
<g clip-path="url(#clip0)">
<path d="M765.259 1399.56H697.577C695.183 1285.32 688.592 1177.92 677.815 1077.28H677.213L574.167 1399.56H522.637L420.204 1077.28H419.616C412.017 1173.9 407.23 1281.33 405.242 1399.56H343.55C347.526 1255.79 357.518 1121 373.487 995.181H457.374L555.006 1292.32H555.608L653.842 995.181H734.106C751.683 1142.55 762.068 1277.35 765.259 1399.56V1399.56ZM1058.78 1101.21C1031.23 1250.75 994.868 1359.41 949.747 1427.23C914.591 1479.44 876.074 1505.58 834.131 1505.58C822.949 1505.58 809.151 1502.2 792.803 1495.51V1459.45C800.794 1460.6 810.171 1461.25 820.948 1461.25C840.54 1461.25 856.286 1455.86 868.293 1445.06C882.653 1431.9 889.833 1417.11 889.833 1400.75C889.833 1389.53 884.235 1366.59 873.066 1331.85L798.793 1101.2H865.284L918.593 1273.7C930.573 1312.87 935.569 1340.22 933.568 1355.8C962.721 1277.94 983.084 1193.05 994.685 1101.18H1058.78V1101.21V1101.21Z" fill="#FF724F"/>
<path d="M1959.71 1399.56H1767.45V995.181H1832.12V1349.78H1959.71V1399.56ZM1717.12 1409.33L1642.79 1372.64C1649.38 1367.23 1655.68 1361.37 1661.36 1354.58C1692.95 1317.47 1708.71 1262.57 1708.71 1189.87C1708.71 1056.09 1656.22 989.165 1551.18 989.165C1499.68 989.165 1459.5 1006.14 1430.77 1040.11C1399.19 1077.25 1383.44 1131.94 1383.44 1204.26C1383.44 1275.34 1397.4 1327.48 1425.35 1360.56C1450.92 1390.52 1489.46 1405.52 1541.01 1405.52C1560.23 1405.52 1577.88 1403.17 1593.95 1398.42L1690.73 1454.77L1717.12 1409.33ZM1476.31 1318.64C1459.93 1292.3 1451.74 1250.01 1451.74 1191.69C1451.74 1089.87 1482.68 1038.9 1544.6 1038.9C1576.97 1038.9 1600.7 1051.09 1615.87 1075.42C1632.22 1101.8 1640.44 1143.72 1640.44 1201.22C1640.44 1303.88 1609.49 1355.21 1547.6 1355.21C1515.22 1355.22 1491.49 1343.07 1476.31 1318.64ZM1355.25 1287.48C1355.25 1321.77 1342.67 1349.9 1317.53 1371.94C1292.37 1393.88 1258.63 1404.88 1216.34 1404.88C1176.79 1404.88 1138.45 1392.25 1101.33 1367.11L1118.71 1332.39C1150.65 1348.38 1179.56 1356.34 1205.53 1356.34C1229.89 1356.34 1248.93 1350.93 1262.75 1340.22C1276.54 1329.47 1284.77 1314.39 1284.77 1295.32C1284.77 1271.3 1268.02 1250.76 1237.28 1233.57C1208.94 1218 1152.26 1185.46 1152.26 1185.46C1121.53 1163.07 1106.15 1139.03 1106.15 1099.43C1106.15 1066.66 1117.62 1040.2 1140.58 1020.07C1163.56 999.863 1193.21 989.793 1229.55 989.793C1267.09 989.793 1301.21 999.85 1331.94 1019.76L1316.35 1054.49C1290.07 1043.32 1264.12 1037.74 1238.52 1037.74C1217.79 1037.74 1201.79 1042.72 1190.66 1052.73C1179.43 1062.69 1172.52 1075.44 1172.52 1091.09C1172.52 1114.99 1189.62 1135.79 1221.19 1153.33C1249.91 1168.92 1308.01 1202.02 1308.01 1202.02C1339.52 1224.37 1355.25 1248.19 1355.25 1287.48Z" fill="#FF724F"/>
<path d="M2040.9 859.738C2001.79 858.744 1971.52 862.681 1946.11 873.432C1938.77 876.361 1927.1 876.361 1926.08 885.634C1930.04 889.558 1930.5 895.888 1933.94 901.302C1939.8 911.072 1950.02 924.216 1959.34 931.069C1969.58 938.917 1979.86 946.685 1990.64 953.525C2009.64 965.283 2031.18 972.123 2049.7 983.842C2060.49 990.656 2071.22 999.471 2082.02 1006.81C2087.33 1010.72 2090.73 1017.06 2097.62 1019.51V1018.02C2094.17 1013.62 2093.19 1007.27 2089.8 1002.37L2075.13 988.223C2060.95 969.181 2043.33 952.558 2024.33 938.904C2008.69 928.127 1974.47 913.479 1968.13 895.456L1967.14 894.462C1977.89 893.455 1990.64 889.558 2000.85 886.563C2017.48 882.181 2032.63 883.175 2049.69 878.794C2057.54 876.832 2065.32 874.373 2073.19 871.954V867.546C2064.35 858.744 2058.05 847.052 2048.75 838.734C2023.87 817.246 1996.46 796.228 1968.13 778.638C1952.96 768.842 1933.45 762.538 1917.29 754.207C1911.47 751.264 1901.66 749.812 1898.24 744.921C1889.47 734.17 1884.54 720.019 1878.19 707.293C1864.06 680.443 1850.34 650.65 1838.15 622.256C1829.34 603.213 1823.98 584.197 1813.23 566.58C1762.87 483.531 1708.19 433.23 1624.15 383.858C1606.09 373.578 1584.6 369.197 1561.65 363.808L1524.99 361.873C1517.16 358.446 1509.33 349.147 1502.5 344.753C1474.62 327.175 1402.83 289.077 1382.32 339.378C1369.11 371.172 1401.86 402.43 1413.11 418.556C1421.42 429.751 1432.18 442.49 1437.99 455.202C1441.43 463.507 1442.39 472.322 1445.83 481.098C1453.65 502.599 1460.97 526.52 1471.25 546.583C1476.61 556.81 1482.45 567.561 1489.31 576.821C1493.23 582.235 1500.06 584.629 1501.55 593.457C1494.73 603.187 1494.2 617.875 1490.29 630.09C1472.71 685.295 1479.58 753.684 1504.49 794.254C1512.29 806.469 1530.88 833.359 1555.76 823.053C1577.78 814.264 1572.91 786.419 1579.24 762.002C1580.69 756.103 1579.73 752.232 1582.66 748.361V749.315C1589.48 762.982 1596.36 776.153 1602.67 789.859C1617.83 813.78 1644.22 838.708 1666.21 855.279C1677.91 864.12 1687.19 879.239 1701.85 884.64V883.175H1700.88C1697.91 878.794 1693.57 876.832 1689.67 873.432C1680.86 864.63 1671.1 853.879 1664.26 844.122C1643.78 816.749 1625.65 786.446 1609.57 755.175C1601.69 740.003 1594.9 723.419 1588.56 708.274C1585.61 702.428 1585.61 693.613 1580.7 690.67C1573.35 701.408 1562.64 710.707 1557.28 723.864C1547.98 744.908 1547.01 770.79 1543.56 797.706L1541.63 798.648C1526.07 794.737 1520.66 778.638 1514.74 764.97C1500.11 730.26 1497.65 674.544 1510.35 634.498C1513.75 624.257 1528.46 592.005 1522.59 582.248C1519.65 572.897 1509.87 567.574 1504.5 560.211C1498.2 550.951 1491.29 539.233 1486.9 528.953C1475.18 501.605 1469.28 471.302 1456.66 443.968C1450.76 431.229 1440.52 418.046 1432.23 406.314C1422.92 393.131 1412.68 383.845 1405.32 368.216C1402.88 362.841 1399.47 354.052 1403.38 348.206C1404.33 344.282 1406.32 342.817 1410.22 341.836C1416.55 336.487 1434.64 343.288 1440.98 346.231C1459.1 353.555 1474.24 360.395 1489.36 370.649C1496.2 375.553 1503.54 384.839 1512.31 387.285H1522.59C1538.19 390.685 1555.79 388.226 1570.47 392.647C1596.36 400.965 1619.81 413.167 1640.84 426.338C1704.83 466.921 1757.6 524.585 1793.23 593.457C1799.08 604.678 1801.56 614.958 1806.9 626.663C1817.19 650.624 1829.91 675.055 1840.13 698.505C1850.4 721.458 1860.18 744.895 1874.84 763.963C1882.15 774.217 1911.53 779.592 1924.7 784.968C1934.44 789.349 1949.61 793.247 1958.4 798.622C1975.02 808.862 1991.58 820.62 2007.21 831.881C2014.99 837.74 2039.45 849.956 2040.9 859.738V859.738ZM1542.52 435.153C1535.78 435.083 1529.05 435.909 1522.53 437.611V438.592H1523.47C1527.41 446.4 1534.25 451.815 1539.12 458.629C1543.06 466.463 1546.47 474.232 1550.33 482.053L1551.27 481.085C1558.17 476.207 1561.59 468.385 1561.59 456.654C1558.62 453.201 1558.17 449.827 1555.69 446.4C1552.82 441.509 1546.47 439.076 1542.52 435.153" fill="#FF724F"/>
<path d="M2087.43 1399.5H2097.56V1349.95H2082.37L2069.99 1383.76L2056.53 1349.95H2041.91V1399.5H2051.47V1361.8H2052L2066.1 1399.5H2073.39L2087.43 1361.8V1399.5ZM2005.89 1399.5H2016.6V1358.35H2030.62V1349.94H1991.28V1358.35H2005.86L2005.89 1399.5Z" fill="#FF724F"/>
</g>
<defs>
<clipPath id="clip0">
<rect width="2500" height="1733" fill="white"/>
</clipPath>
</defs>
</svg>
