<svg width="1396" height="1574" viewBox="0 0 1396 1574" fill="none" xmlns="http://www.w3.org/2000/svg">
<path d="M698 1573.08C676.323 1573.08 656.091 1567.29 637.304 1557.18L445.101 1443.01C416.199 1427.11 430.65 1421.33 439.321 1418.44C478.34 1405.44 485.565 1402.54 526.029 1379.42C530.364 1376.53 536.145 1377.98 540.48 1380.87L687.884 1469.02C693.665 1471.91 700.89 1471.91 705.226 1469.02L1281.83 1135.19C1287.61 1132.3 1290.51 1126.52 1290.51 1119.29V453.063C1290.51 445.837 1287.61 440.057 1281.83 437.166L705.226 104.775C699.445 101.885 692.219 101.885 687.884 104.775L111.275 437.166C105.495 440.057 102.605 447.282 102.605 453.063V1119.29C102.605 1125.07 105.495 1132.3 111.275 1135.19L268.795 1226.23C354.058 1269.59 407.528 1219.01 407.528 1168.43V510.87C407.528 502.199 414.754 493.528 424.87 493.528H498.571C507.242 493.528 515.913 500.754 515.913 510.87V1168.43C515.913 1282.6 453.772 1349.07 345.387 1349.07C312.149 1349.07 286.137 1349.07 212.435 1312.94L60.6957 1226.23C23.1222 1204.56 0 1164.09 0 1120.74V454.508C0 411.153 23.1222 370.688 60.6957 349.01L637.304 15.1744C673.433 -5.05812 722.567 -5.05812 758.696 15.1744L1335.3 349.01C1372.88 370.688 1396 411.153 1396 454.508V1120.74C1396 1164.09 1372.88 1204.56 1335.3 1226.23L758.696 1560.07C739.909 1568.74 718.232 1573.08 698 1573.08ZM875.752 1114.95C622.853 1114.95 570.828 999.34 570.828 901.068C570.828 892.397 578.054 883.726 588.17 883.726H663.317C671.988 883.726 679.213 889.507 679.213 898.178C690.774 974.772 724.012 1012.35 877.197 1012.35C998.588 1012.35 1050.61 984.889 1050.61 919.856C1050.61 882.281 1036.16 854.823 846.849 836.035C689.329 820.138 591.06 785.454 591.06 659.724C591.06 542.664 689.329 473.296 854.075 473.296C1039.05 473.296 1130.1 536.883 1141.66 675.621C1141.66 679.956 1140.21 684.292 1137.32 688.627C1134.43 691.517 1130.1 694.408 1125.76 694.408H1050.61C1043.39 694.408 1036.16 688.627 1034.72 681.401C1017.37 601.916 972.576 575.903 854.075 575.903C721.122 575.903 705.226 622.149 705.226 656.833C705.226 698.743 724.012 711.75 903.209 734.873C1080.96 757.996 1164.78 791.235 1164.78 915.52C1163.33 1042.7 1059.28 1114.95 875.752 1114.95Z" fill="#FF724F"/>
</svg>
