<svg width="2500" height="919" viewBox="0 0 2500 919" fill="none" xmlns="http://www.w3.org/2000/svg">
<path fill-rule="evenodd" clip-rule="evenodd" d="M1705.04 318.707H1751.88V558.648H1954.92L1925.1 605.521H1705.04V318.707V318.707ZM1337.3 605.521L1164.08 332.196C1153.43 314.453 1125.04 314.453 1112.96 332.909L941.164 605.521H997.959L1049.79 523.163H1160.53L1189.65 476.303H1078.9L1139.25 381.896L1280.53 605.521H1337.3V605.521ZM1442.7 318.798C1363.56 318.798 1311.46 382.96 1311.46 462.114C1311.46 541.256 1363.58 605.443 1442.7 605.443L1635.15 605.21L1665.27 558.752H1444.12C1390.77 558.752 1359.56 515.485 1359.56 462.114C1359.56 408.744 1390.76 365.476 1444.12 365.476H1641.12L1670.19 318.656L1442.7 318.798V318.798ZM241.549 365.476H444.578C497.948 365.476 529.153 408.744 529.153 462.114C529.153 515.485 497.961 558.752 444.578 558.752H241.549C188.178 558.752 156.986 515.485 156.986 462.114C156.986 408.744 188.178 365.476 241.549 365.476ZM241.549 318.798C162.394 318.798 110.295 382.96 110.295 462.114C110.295 541.256 162.394 605.443 241.549 605.443H444.578C523.732 605.443 575.832 541.256 575.832 462.114C575.832 382.96 523.732 318.798 444.578 318.798H241.549ZM2004.97 484.837C2012.6 527.248 2041.78 558.752 2087.33 558.752H2308.48L2278.33 605.21L2085.91 605.443C2006.75 605.443 1954.67 541.256 1954.67 462.114C1954.67 382.96 2006.76 318.798 2085.91 318.798L2313.39 318.669L2284.34 365.489H2087.34C2042.43 365.489 2013.12 396.461 2004.98 437.99H2282.93L2253.11 484.85H2004.97V484.837V484.837ZM840.713 488.987C863.024 488.598 884.29 479.461 899.931 463.545C915.571 447.629 924.335 426.207 924.335 403.893C924.335 381.578 915.571 360.156 899.931 344.24C884.29 328.324 863.024 319.188 840.713 318.798L601.823 318.694V605.508H654.364V365.489H840.713C850.898 365.489 860.666 369.535 867.869 376.738C875.071 383.94 879.117 393.708 879.117 403.893C879.117 414.078 875.071 423.846 867.869 431.048C860.666 438.25 850.898 442.296 840.713 442.296H691.276L859.857 605.184H927.675L806.992 489.091L840.713 488.987V488.987ZM2362.47 318.967C2374.65 318.967 2384.28 328.59 2384.28 341.353C2384.28 354.322 2374.66 363.868 2362.47 363.868C2350.13 363.868 2340.54 354.322 2340.54 341.353C2340.54 328.59 2350.13 318.967 2362.47 318.967V314.479C2347.64 314.479 2335.12 325.88 2335.12 341.34C2335.12 356.955 2347.66 368.356 2362.47 368.356C2377.16 368.356 2389.71 356.955 2389.71 341.34C2389.71 325.88 2377.16 314.479 2362.47 314.479V318.967Z" fill="#FF724F"/>
<path fill-rule="evenodd" clip-rule="evenodd" d="M2356.77 329.875H2363.21C2366.48 329.875 2369.97 330.588 2369.97 334.44C2369.97 339.213 2366.4 339.511 2362.39 339.511H2356.76V343.506H2362.18L2370.39 356.981H2375.66L2366.81 343.298C2371.38 342.727 2374.87 340.315 2374.87 334.751C2374.87 328.616 2371.22 325.906 2363.9 325.906H2352.04V356.981H2356.75V329.875H2356.77V329.875Z" fill="#FF724F"/>
</svg>
