<svg width="2500" height="1875" viewBox="0 0 2500 1875" fill="none" xmlns="http://www.w3.org/2000/svg">
<g clip-path="url(#clip0)">
<path d="M2151.37 1077.15C2063.97 1077.64 1988.28 1098.63 1924.81 1129.89C1901.37 1083.5 1877.93 1042.97 1874.03 1012.7C1869.63 977.544 1864.26 956.055 1869.63 914.067C1875 872.07 1899.41 812.5 1899.41 807.617C1898.92 803.223 1894.04 781.738 1843.75 781.25C1793.46 780.762 1750 791.016 1745.12 804.199C1740.23 817.383 1730.47 847.656 1724.12 878.906C1715.33 924.805 1623.54 1087.4 1571.29 1172.85C1554.2 1139.65 1539.55 1110.35 1536.62 1086.91C1532.23 1051.76 1526.85 1030.27 1532.23 988.281C1537.6 946.284 1562.01 886.719 1562.01 881.836C1561.52 877.441 1556.64 855.957 1506.35 855.469C1456.06 854.98 1412.6 865.234 1407.72 878.418C1402.84 891.601 1397.47 922.851 1386.72 953.125C1376.47 983.398 1254.39 1254.88 1222.66 1325.68C1206.54 1361.82 1192.39 1390.62 1182.13 1410.16C1171.88 1429.69 1181.64 1411.62 1180.66 1413.57C1171.88 1430.18 1166.99 1439.45 1166.99 1439.45V1439.95C1160.16 1452.15 1152.83 1463.87 1149.41 1463.87C1146.97 1463.87 1142.09 1431.15 1150.39 1386.24C1168.45 1291.99 1212.4 1145.02 1211.91 1139.65C1211.91 1137.21 1220.21 1111.33 1183.59 1098.15C1147.94 1084.97 1135.25 1106.94 1132.32 1106.94C1129.39 1106.94 1126.95 1114.75 1126.95 1114.75C1126.95 1114.75 1166.5 949.228 1051.26 949.228C978.999 949.228 879.39 1027.84 830.074 1099.62C798.824 1116.71 732.417 1152.84 662.105 1191.42C635.249 1206.06 607.417 1221.69 581.05 1235.85L575.684 1229.98C436.035 1081.05 177.735 975.586 188.477 775.391C192.383 702.637 217.774 510.742 684.576 278.32C1066.9 87.8906 1373.05 140.137 1426.27 256.348C1501.95 422.363 1262.7 730.957 865.24 775.391C713.872 792.48 634.278 733.887 614.263 711.914C593.267 688.965 590.337 687.988 582.525 692.383C569.829 699.219 577.642 719.726 582.525 731.933C594.243 762.695 643.072 817.383 726.079 844.726C798.828 868.652 976.568 881.836 1191.41 798.828C1432.13 705.566 1620.12 446.777 1564.95 230.469C1508.79 10.2539 1143.56 -62.0118 798.345 60.5468C592.774 133.789 370.118 248.047 209.961 397.949C19.5316 575.684 -10.7419 730.957 1.95344 795.41C46.3919 1025.39 363.282 1175.29 490.235 1286.13C483.887 1289.55 478.028 1292.96 472.657 1295.9C409.18 1327.14 167.481 1453.61 106.934 1587.4C38.5745 1738.76 117.676 1847.66 170.41 1862.3C333.496 1907.71 500.489 1826.17 590.821 1691.89C680.659 1557.62 669.922 1383.3 628.418 1303.71L626.949 1300.78L676.753 1271.48C708.985 1252.44 740.723 1234.86 768.55 1219.72C752.93 1262.2 741.695 1312.5 735.84 1385.74C729.004 1471.68 764.16 1583 810.547 1626.95C831.055 1645.99 855.469 1646.48 870.606 1646.48C924.317 1646.48 948.731 1602.04 975.586 1548.82C1008.79 1483.88 1038.09 1408.69 1038.09 1408.69C1038.09 1408.69 1001.47 1612.3 1101.56 1612.3C1138.18 1612.3 1174.8 1564.94 1191.41 1540.52V1541.01C1191.41 1541.01 1192.38 1539.55 1194.34 1536.13C1196.39 1533.1 1198.34 1530.01 1200.2 1526.86V1525.88C1214.84 1500.49 1247.56 1442.38 1296.39 1346.19C1359.37 1222.17 1419.92 1066.89 1419.92 1066.89C1419.92 1066.89 1425.78 1104.98 1443.85 1167.48C1454.59 1204.59 1478.02 1245.12 1496.09 1284.67C1481.44 1305.18 1472.65 1316.9 1472.65 1316.9L1473.14 1317.39C1461.43 1333.01 1448.24 1349.62 1434.57 1366.22C1384.77 1425.79 1325.2 1493.66 1317.38 1513.19C1308.11 1536.14 1310.06 1553.23 1328.13 1566.9C1341.31 1576.67 1364.75 1578.62 1389.65 1576.67C1434.57 1573.74 1465.82 1562.51 1481.45 1555.67C1505.86 1546.88 1533.69 1533.7 1560.55 1514.17C1609.38 1478.04 1639.16 1426.77 1636.23 1358.41C1634.77 1320.81 1622.56 1283.7 1607.42 1248.54C1611.82 1242.2 1616.22 1235.84 1620.61 1229.01C1697.75 1116.22 1757.32 992.197 1757.32 992.197C1757.32 992.197 1763.18 1030.28 1781.25 1092.78C1790.52 1124.52 1809.08 1159.19 1825.68 1193.37C1753.42 1252.46 1708.01 1320.82 1692.38 1365.74C1663.57 1448.75 1686.04 1486.34 1728.52 1495.13C1747.55 1499.04 1774.9 1490.25 1795.41 1481.46C1820.8 1473.16 1851.56 1458.99 1879.88 1438C1928.71 1401.87 1975.59 1351.58 1973.14 1283.71C1971.68 1252.46 1963.38 1221.69 1952.15 1192.4C2013.67 1167.01 2093.26 1152.36 2194.34 1164.57C2411.62 1189.96 2454.59 1325.7 2446.29 1382.34C2437.99 1438.98 2392.58 1470.23 2377.44 1480C2362.3 1489.27 2357.42 1492.7 2358.89 1499.53C2360.84 1509.79 2367.68 1509.29 2380.86 1507.34C2398.93 1504.41 2495.12 1460.96 2499.02 1356.47C2504.88 1222.17 2377.44 1075.69 2151.37 1077.15V1077.15ZM475.586 1642.09C403.809 1720.7 302.735 1750.49 259.766 1725.1C213.379 1698.24 231.441 1582.52 319.825 1499.02C373.535 1448.24 443.36 1401.37 489.258 1372.56C499.512 1366.21 515.137 1356.94 533.692 1345.7C536.621 1343.75 538.575 1342.77 538.575 1342.77C541.993 1340.82 545.899 1338.38 549.805 1335.94C582.52 1455.08 551.27 1559.57 475.586 1642.09V1642.09ZM1000.49 1285.16C975.586 1346.19 922.852 1502.93 891.114 1494.14C863.765 1486.82 847.168 1368.16 885.738 1250.98C905.269 1191.89 946.773 1121.58 971.187 1094.23C1010.74 1050.29 1053.71 1035.64 1064.45 1053.71C1077.15 1077.15 1016.11 1247.07 1000.49 1285.16ZM1433.59 1492.19C1422.85 1497.56 1413.09 1501.46 1408.69 1498.54C1405.27 1496.59 1413.08 1489.26 1413.08 1489.26C1413.08 1489.26 1467.28 1431.16 1488.76 1404.3C1500.97 1388.68 1515.62 1370.62 1531.25 1350.1V1355.96C1531.25 1426.27 1463.87 1473.14 1433.59 1492.19ZM1767.57 1416.02C1759.76 1410.16 1760.74 1392.09 1787.1 1335.45C1797.36 1312.99 1820.8 1275.39 1861.32 1239.75C1866.21 1254.39 1869.14 1268.55 1868.65 1281.74C1868.16 1369.63 1805.66 1402.34 1767.57 1416.02Z" fill="#FF724F"/>
</g>
<defs>
<clipPath id="clip0">
<rect width="2500" height="1875" fill="white"/>
</clipPath>
</defs>
</svg>
