<svg width="2499" height="2500" viewBox="0 0 2499 2500" fill="none" xmlns="http://www.w3.org/2000/svg">
<g clip-path="url(#clip0)">
<path d="M2272.79 130.364C2237.64 214.337 2193.05 294.079 2139.35 367.311C1904.36 132.317 1585.39 0.174316 1253.08 0.174316C565.676 0.174316 0 566.501 0 1254.88C0 1598.26 140.605 1926.99 389.269 2163.93L435.486 2204.94C661.366 2395.35 947.459 2500.15 1242.66 2500.15C1896.22 2500.15 2445.62 1987.85 2492.17 1334.95C2526.34 1015.33 2432.6 611.092 2272.79 130.364ZM567.304 2171.1C547.124 2196.16 516.204 2210.8 483.982 2210.8C425.071 2210.8 376.901 2162.31 376.901 2103.4C376.901 2044.49 425.396 1995.99 483.982 1995.99C508.393 1995.99 532.478 2004.45 551.355 2020.07C597.247 2057.18 604.408 2125.2 567.304 2171.1ZM2267.59 1795.5C1958.39 2207.87 1298 2068.9 874.552 2088.75C874.552 2088.75 799.368 2093.31 723.857 2105.67C723.857 2105.67 752.174 2093.63 788.952 2079.64C1086.11 1976.14 1226.72 1955.96 1407.36 1863.2C1747.48 1690.04 2083.69 1311.19 2153.67 917.039C2024.13 1296.22 1631.61 1622.02 1273.91 1754.49C1028.83 1844.97 586.181 1932.85 586.181 1932.85L568.28 1923.41C266.89 1776.62 257.776 1123.39 805.552 912.482C1045.43 820.047 1274.89 870.821 1533.97 808.981C1810.62 743.235 2130.56 535.581 2260.75 264.786C2406.56 697.994 2582 1376.28 2267.59 1795.5V1795.5Z" fill="#FF724F"/>
</g>
<defs>
<clipPath id="clip0">
<rect width="2499" height="2500" fill="white"/>
</clipPath>
</defs>
</svg>
