<svg width="2500" height="2500" viewBox="0 0 2500 2500" fill="none" xmlns="http://www.w3.org/2000/svg">
<path d="M0 1250V0H2500V2500H0" fill="#FF724F"/>
<path d="M548.125 1254.37V1356.25H873.125V2281.25H1103.75V1356.25H1428.75V1256.25C1428.75 1200 1428.75 1154.37 1426.25 1153.12C1426.25 1151.25 1228.13 1150.62 987.5 1150.62L550 1152.5V1255L548.125 1254.37V1254.37ZM2008.75 1150C2072.5 1165 2121.25 1193.75 2165 1239.37C2188.13 1264.37 2222.5 1308.12 2225 1319.37C2225 1323.12 2116.88 1396.25 2051.25 1436.87C2048.75 1438.75 2038.75 1428.12 2028.75 1411.87C1996.25 1365.62 1963.12 1345.62 1911.25 1341.87C1836.25 1336.87 1786.25 1376.25 1786.25 1441.87C1786.25 1461.87 1790 1473.12 1797.5 1489.37C1814.38 1523.75 1845.62 1544.37 1942.5 1586.87C2121.25 1663.75 2198.75 1714.37 2245.62 1786.87C2298.75 1868.12 2310.62 1995.63 2275 2091.25C2235 2195.63 2137.5 2266.25 1998.13 2289.37C1954.38 2296.87 1854.38 2295.62 1807.5 2287.5C1707.5 2268.75 1611.88 2218.75 1553.13 2154.38C1530 2129.38 1485.63 2062.5 1488.13 2058.12L1511.87 2043.12L1605.62 1988.75L1676.25 1947.5L1692.5 1969.38C1713.12 2001.88 1759.37 2045.63 1786.25 2060.63C1867.5 2102.5 1976.25 2096.88 2030 2048.13C2053.12 2026.88 2063.13 2004.38 2063.13 1973.13C2063.13 1944.38 2058.75 1931.25 2044.38 1909.37C2024.38 1881.87 1984.38 1859.37 1871.88 1809.37C1742.5 1754.37 1687.5 1719.37 1636.25 1665.62C1606.87 1633.12 1580 1582.5 1567.5 1540.62C1558.13 1504.37 1555 1415.62 1563.75 1380C1590.63 1255 1685 1167.5 1820 1142.5C1863.75 1133.75 1966.88 1137.5 2010 1148.75L2008.75 1150V1150Z" fill="white"/>
</svg>
