<svg width="2500" height="2500" viewBox="0 0 2500 2500" fill="none" xmlns="http://www.w3.org/2000/svg">
<g clip-path="url(#clip0)">
<path d="M177.691 1249.97C177.691 1674.44 424.359 2041.23 782.047 2215.07L270.53 813.562C209.211 950.875 177.575 1099.59 177.691 1249.97V1249.97ZM1973.92 1195.86C1973.92 1063.33 1926.32 971.552 1885.49 900.117C1831.14 811.786 1780.21 736.984 1780.21 648.654C1780.21 550.08 1854.95 458.322 1960.25 458.322C1965.01 458.322 1969.52 458.914 1974.17 459.179C1783.37 284.396 1529.19 177.681 1250.02 177.681C875.397 177.681 545.805 369.89 354.066 661.019C379.224 661.774 402.955 662.284 423.073 662.284C535.236 662.284 708.856 648.674 708.856 648.674C766.662 645.267 773.477 730.169 715.753 737.004C715.753 737.004 657.641 743.84 593.001 747.227L983.499 1908.74L1218.19 1204.94L1051.1 747.207C993.354 743.82 938.65 736.984 938.65 736.984C880.865 733.597 887.639 645.246 945.424 648.654C945.424 648.654 1122.51 662.263 1227.88 662.263C1340.02 662.263 1513.66 648.654 1513.66 648.654C1571.51 645.246 1578.31 730.149 1520.54 736.984C1520.54 736.984 1462.33 743.82 1397.81 747.207L1785.33 1899.93L1892.27 1542.51C1938.65 1394.19 1973.92 1287.66 1973.92 1195.86V1195.86Z" fill="#FF724F"/>
<path d="M1268.83 1343.77L947.098 2278.65C1045.46 2307.64 1147.48 2322.36 1250.02 2322.36C1374.89 2322.36 1494.65 2300.75 1606.12 2261.58C1603.13 2256.89 1600.57 2251.95 1598.49 2246.8L1268.83 1343.77ZM2190.95 735.495C2195.56 769.651 2198.17 806.338 2198.17 845.76C2198.17 954.576 2177.85 1076.9 2116.63 1229.85L1789.08 2176.88C2107.88 1990.97 2322.31 1645.59 2322.31 1249.97C2322.59 1070.15 2277.41 893.169 2190.95 735.495V735.495Z" fill="#FF724F"/>
<path d="M1250.02 0C560.782 0 0.00976562 560.731 0.00976562 1249.97C0.00976562 1939.29 560.762 2500.02 1250.02 2500.02C1939.24 2500.02 2500.09 1939.31 2500.09 1249.97C2500.07 560.731 1939.24 0 1250.02 0ZM1250.02 2442.7C592.388 2442.7 57.3255 1907.64 57.3255 1249.97C57.3255 592.358 592.368 57.3362 1250.02 57.3362C1907.63 57.3362 2442.65 592.358 2442.65 1249.97C2442.65 1907.64 1907.61 2442.7 1250.02 2442.7Z" fill="#FF724F"/>
</g>
<defs>
<clipPath id="clip0">
<rect width="2500" height="2500" fill="white"/>
</clipPath>
</defs>
</svg>
