<svg width="680" height="453" viewBox="0 0 680 453" fill="none" xmlns="http://www.w3.org/2000/svg">
<rect width="680" height="453" fill="white"/>
<path d="M130.025 355C131.917 354.518 133.079 354.838 135.025 355C136.401 355.115 137.507 354.567 138.525 355.5C139.169 356.09 139.234 356.677 139.525 357.5C140.305 359.71 139.525 363.5 139.525 363.5L138.025 365C136.853 366.172 136.463 367.178 135.025 368C133.953 368.613 133.16 368.514 132.025 369C131.222 369.344 130.871 369.787 130.025 370C127.809 370.56 125.852 369.861 124.525 368C123.164 366.093 124.525 362 124.525 362C124.525 362 124.484 358.969 125.525 357.5C126.687 355.86 128.077 355.497 130.025 355Z" fill="#3582E5"/>
<path d="M94.0009 398.5C97.3633 395.848 99.8309 394.975 104.001 394C108.944 392.844 112.123 392.594 117.001 394C120.61 395.04 122.809 395.88 125.501 398.5C127.949 400.882 128.947 402.751 130.001 406C131.447 410.458 131.447 413.542 130.001 418C128.947 421.249 127.967 423.137 125.501 425.5C123.228 427.678 121.376 428.218 118.501 429.5C115.681 430.757 114.079 431.763 111.001 432C106.987 432.309 104.729 431.019 101.001 429.5C96.2854 427.579 93.3527 426.333 90.0009 422.5C87.2411 419.344 85.0522 417.192 85.0009 413C84.9537 409.154 86.8274 407.173 89.0009 404C90.6412 401.605 91.7217 400.298 94.0009 398.5Z" fill="#F2C94C"/>
<path d="M161 399.111C161.024 396.611 168 399.111 168 399.111C168 399.111 171.84 397.748 173.5 399.111C174.38 399.834 175 401.611 175 401.611V405.111L171 407.111L169 410.111L164.5 409.111C164.5 409.111 160.977 401.611 161 399.111Z" fill="#C6193A"/>
<path d="M51 406.547C51 406.547 51.8106 408.141 52.5 409.047C53.7569 410.699 56.5 412.547 56.5 412.547C56.5 412.547 59.5882 413.593 61 412.547C62.1947 411.661 62.5 409.047 62.5 409.047L64 405.047C64 405.047 66.6292 400.776 65 399.047C63.8957 397.875 62.6076 397.956 61 398.047C59.0799 398.155 57.9674 398.804 56.5 400.047C55.2183 401.132 55.0864 402.266 54 403.547C52.9283 404.81 51 406.547 51 406.547Z" fill="#EB5757"/>
<path d="M419 214.547C419 214.547 419.811 216.141 420.5 217.047C421.757 218.699 424.5 220.547 424.5 220.547C424.5 220.547 427.588 221.593 429 220.547C430.195 219.661 430.5 217.047 430.5 217.047L432 213.047C432 213.047 434.629 208.776 433 207.047C431.896 205.875 430.608 205.956 429 206.047C427.08 206.155 425.967 206.804 424.5 208.047C423.218 209.132 423.086 210.266 422 211.547C420.928 212.81 419 214.547 419 214.547Z" fill="#56CCF2"/>
<path d="M127.023 320.001C128.045 319.793 134.049 317.236 136.523 320.001C137.396 320.977 137.982 321.692 138.023 323.001C138.084 324.953 135.84 325.228 135.023 327.001C134.428 328.292 135.086 329.558 134.023 330.501C132.118 332.191 128.523 327.001 128.523 327.001C128.523 327.001 124.356 323.652 125.523 321.501C125.918 320.773 126 320.209 127.023 320.001Z" fill="#C6193A"/>
<path d="M68.0544 284.152C66.2414 287.25 64.6032 288.757 61.5544 290.652C59.3985 291.992 56.9056 291.003 55.5544 293.152C54.307 295.136 55.5544 299.152 55.5544 299.152L59.5544 301.652L60.5544 304.152C60.5544 304.152 66.1047 307.372 68.0544 305.152C69.6004 303.391 68.0544 299.152 68.0544 299.152C69.4212 296.809 70.1875 295.495 71.5544 293.152C72.9212 290.809 76.8228 289.969 77.0544 286.652C77.2135 284.372 75.0544 281.152 75.0544 281.152C75.0544 281.152 71.9873 278.324 70.0544 279.152C68.1214 279.98 69.1164 282.337 68.0544 284.152Z" fill="#EB5757"/>
<path d="M182.027 123.627C183.027 127.627 176.527 127.627 177.027 130.627C177.527 133.627 178.027 137.127 183.527 138.127C189.027 139.127 195.027 139.127 197.527 137.127C200.027 135.127 206.027 132.127 204.027 127.127C202.027 122.127 194.527 124.127 191.527 119.127C189.127 115.127 185.194 117.673 183.527 119.446C182.398 120.643 181.643 122.089 182.027 123.627Z" fill="#C6193A"/>
<path d="M194.499 22.5C191.833 22.3334 186.299 22.5 185.499 24.5C184.499 27 181.999 34 184.999 37.5C187.999 41 192 43.5 195.5 42.5C199 41.5 204.5 39 204 34.5C203.5 30 203.999 22.5 194.499 22.5Z" fill="#F2C94C"/>
<path d="M412.929 22.0489C410.262 21.8822 404.729 22.0489 403.929 24.0489C402.929 26.5489 400.429 33.5488 403.429 37.0488C406.429 40.5488 410.43 43.0488 413.93 42.0488C417.43 41.0488 422.93 38.5488 422.43 34.0488C421.93 29.5488 422.429 22.0489 412.929 22.0489Z" fill="#56CCF2"/>
<path d="M229.702 330.386C225.638 335.334 225.439 340.238 226.649 346.545C227.612 351.561 229.523 354.153 232.755 358.088C237.713 364.123 242.222 366.239 249.547 368.861C256.898 371.493 262.759 375.311 269.391 371.169C272.442 369.264 273.164 366.995 275.497 364.244C277.009 362.46 278.388 361.781 279.313 359.627C280.616 356.594 279.744 354.439 279.313 351.162C278.694 346.452 278.293 343.444 275.497 339.62C272.159 335.056 268.039 334.953 263.285 331.925C259.999 329.832 258.471 328.058 254.889 326.538C250.147 324.526 247.01 323.513 241.914 324.23C236.633 324.972 233.103 326.245 229.702 330.386Z" fill="#F2994A"/>
<path d="M29.4992 98.9998C31.5077 98.2139 33.8277 98.5235 34.9992 99.4998L37.9992 102C37.9992 102 38.8052 104.71 38.9992 106.5C39.1887 108.247 38.9992 109.242 38.9992 111V116C38.9992 116.976 39.2824 117.565 38.9992 118.5C38.6366 119.696 38.0838 120.378 36.9992 121C35.969 121.591 35.183 121.596 33.9992 121.5C31.9955 121.336 31.0444 120.286 29.4992 119C27.0014 116.921 26.4335 114.916 24.9992 112C24.3429 110.665 23.4992 108.5 23.4992 108.5C23.4992 108.5 22.2837 105.028 23.4992 103.5C24.425 102.336 25.9219 103.025 26.9992 102C27.8241 101.215 27.5712 100.159 28.4992 99.4998C28.8551 99.2468 29.0926 99.1589 29.4992 98.9998Z" fill="#F2994A"/>
<path d="M177.5 199C174.015 199.227 171.204 199.95 169.5 203C168.807 204.241 168.532 205.079 168.5 206.5C168.442 209.119 169.427 210.899 171.5 212.5C173.412 213.976 175.098 213.751 177.5 214C179.248 214.181 180.509 214.93 182 214C183.336 213.167 183.17 211.837 184 210.5C184.743 209.304 185.826 208.897 186 207.5C186.277 205.291 183.919 204.716 182.5 203C181.178 201.4 181.044 199.366 179 199C178.424 198.897 178.085 198.962 177.5 199Z" fill="#EB5757"/>
<path d="M245.5 234C243.355 234.595 242.147 235.592 241 237.5C239.876 239.371 239.159 240.985 240 243C241.01 245.417 246 246 246 246C246 246 247.043 248.874 248.5 250C250.533 251.57 255 251 255 251C255 251 257.581 249.548 258.5 248C259.322 246.615 259.5 244 259.5 244C259.5 244 260.249 240.803 259.5 239C258.482 236.547 254 235 254 235L249.5 234C249.5 234 247.006 233.583 245.5 234Z" fill="#F2C94C"/>
<path d="M119.5 156L123 150.5L128.5 148L127 143.5L125 138.5L119.5 137L115 140L111.5 143.5L109.5 152.5L113 160H119.5V156Z" fill="#F2C94C"/>
<path fill-rule="evenodd" clip-rule="evenodd" d="M109.892 50.5029C108.094 52.0923 106.202 53.7644 103.506 53.9988C99.307 54.364 96.1872 54.2646 93.0063 51.4988C90.2378 49.0917 89.0948 46.6664 89.0063 42.9988C88.948 40.5843 89.2826 39.0812 90.5063 36.9988C92.1288 34.2377 93.9361 32.9101 97.0063 31.9988C97.4443 31.8688 97.9178 31.7209 98.4146 31.5656C100.678 30.8584 103.424 30 105.506 30C108.047 30 108.611 30.3291 110.208 31.2597C110.574 31.4733 110.995 31.7186 111.506 31.9988C113.699 33.2005 114.482 34.7178 115.506 36.9988C117.186 40.7393 120.006 47.4988 115.506 47.4988C113.291 47.4988 111.636 48.962 109.892 50.5029ZM101.557 35.2508C102.618 35.4696 103.127 35.5745 103.006 37C102.847 38.8692 100.864 39.3433 98.8337 39.8291C98.0285 40.0217 97.2157 40.2161 96.5059 40.5C95.4987 40.9029 95.5021 40.5074 95.5098 39.616C95.5114 39.431 95.5132 39.2246 95.5062 38.9996C95.4452 37.0479 96.6155 35.4875 98.5062 34.9996C99.2625 34.8044 99.7568 34.7796 100.506 34.9996C100.901 35.1155 101.252 35.1878 101.557 35.2508Z" fill="#EB5757"/>
<path d="M237.5 175.5C242.717 176.497 246.805 178.466 248.5 183.5C249.435 186.275 249.627 188.296 248.5 191C246.876 194.899 243.549 195.794 239.5 197C235.57 198.17 232.801 198.54 229 197C224.775 195.288 221.733 192.999 221 188.5C220.483 185.321 221.17 183.149 223 180.5C225.189 177.331 227.726 176.263 231.5 175.5C231.5 175.5 235.199 175.059 237.5 175.5Z" fill="#F2994A"/>
<path d="M204.501 175C205.155 173.754 206.891 174.269 207.501 173C208.446 171.032 206.953 168.977 205.001 168C203.048 167.024 201.25 167.694 199.501 169C197.611 170.412 197.331 172.164 197.001 174.5C196.837 175.66 197.371 176.389 197.001 177.5C196.477 179.072 194.958 179.147 194.001 180.5C192.89 182.07 192.08 183.078 192.001 185C191.925 186.851 192.339 188.057 193.501 189.5C195.093 191.477 196.979 191.708 199.501 192C201.45 192.226 202.682 192.237 204.501 191.5C205.806 190.972 207.123 190.857 207.501 189.5C207.952 187.882 204.992 187.68 205.001 186C205.006 184.949 205.289 184.275 206.001 183.5C206.477 182.982 206.947 182.935 207.501 182.5C208.37 181.819 209.24 181.573 209.501 180.5C209.997 178.456 204.501 178.5 204.501 178.5C204.501 178.5 203.866 176.21 204.501 175Z" fill="#F2994A"/>
<path d="M279.5 145.039C282 143.039 262 137 261 139.039C261 144.539 267 150.038 269 151.538C271 153.038 277 147.039 279.5 145.039Z" fill="#C6193A"/>
<path fill-rule="evenodd" clip-rule="evenodd" d="M372 121C373.638 120.255 374.723 119.711 376.5 120C379.092 120.421 380.571 122.042 381.5 124.5C382.476 127.083 382.142 129.28 380.5 131.5C379.044 133.467 377.429 134.212 375 134.5C372.362 134.812 370.447 134.306 368.5 132.5C366.77 130.895 365.546 129.315 366 127C366.323 125.351 368.5 123.5 368.5 123.5C368.5 123.5 370.47 121.695 372 121ZM379.5 127C379.636 125.481 377.749 123.625 376.5 124.5C376.273 124.658 376.174 124.786 376 125C375.13 126.072 374.541 127.507 375.5 128.5C376.192 129.216 377.072 129.361 378 129C378.91 128.646 379.413 127.972 379.5 127Z" fill="#F2C94C"/>
<path d="M227 132C227 132 225.368 138.034 225 142C224.676 145.5 223.514 147.815 225 151C226.344 153.881 228.59 154.428 231 156.5C232.157 157.494 232.479 158.9 234 159C235.307 159.086 235.704 157.685 237 157.5C238.834 157.238 239.815 158.23 241.5 159C242.932 159.654 245 161 245 161C245 161 245.081 159.777 245 159C244.703 156.132 243.09 154.905 241.5 152.5C239.059 148.807 236.139 147.876 234 144C232.21 140.756 233.446 137.783 231 135C229.711 133.533 227 132 227 132Z" fill="#C6193A"/>
<path d="M255.337 80.025C253.337 75.625 249.004 72.6924 246.837 73.0258C238.837 73.0254 237.835 79 236.501 82C235 87 235.012 88.5358 243.337 96.5249C247.999 101 259.337 100.525 263.337 96.5249C264.503 95.1916 265.537 91.9249 260.337 89.5249C253.837 86.5249 257.837 85.525 255.337 80.025Z" fill="#3582E5"/>
<path d="M368.581 368.634C370.461 369.162 371.307 370.02 372.911 371.134C374.046 371.921 375.277 372 375.692 373.317C375.955 374.15 375.718 374.69 375.558 375.549C375.129 377.852 372.558 380.745 372.558 380.745L370.509 381.294C368.909 381.723 368.068 382.4 366.411 382.392C365.176 382.387 364.54 381.904 363.313 381.758C362.446 381.655 361.921 381.862 361.081 381.624C358.882 381.001 357.537 379.417 357.318 377.142C357.093 374.81 360.318 371.946 360.318 371.946C360.318 371.946 361.798 369.301 363.434 368.549C365.261 367.709 366.646 368.09 368.581 368.634Z" fill="#6FCF97"/>
<path d="M389.472 356.446C390.742 354.292 395.534 359.946 395.534 359.946C395.534 359.946 399.541 360.685 400.297 362.696C400.698 363.761 400.346 365.611 400.346 365.611L398.596 368.642L394.132 368.374L390.9 369.972L387.503 366.856C387.503 366.856 388.201 358.599 389.472 356.446Z" fill="#C6193A"/>
<path d="M383.48 336.822C384.47 337.153 390.947 337.94 391.707 341.572C391.976 342.854 392.125 343.766 391.506 344.92C390.583 346.641 388.503 345.757 386.908 346.884C385.747 347.705 385.685 349.13 384.292 349.415C381.798 349.926 381.279 343.634 381.279 343.634C381.279 343.634 379.345 338.65 381.431 337.371C382.137 336.938 382.49 336.491 383.48 336.822Z" fill="#C6193A"/>
<path d="M635.196 130.989C632.077 132.766 629.905 133.251 626.317 133.368C623.78 133.451 622.116 131.348 619.871 132.533C617.799 133.627 616.871 137.729 616.871 137.729L619.085 141.894L618.701 144.559C618.701 144.559 621.898 150.124 624.696 149.175C626.915 148.424 627.696 143.979 627.696 143.979C630.051 142.633 631.372 141.879 633.727 140.533C636.083 139.187 639.881 140.411 641.74 137.654C643.018 135.759 642.758 131.891 642.758 131.891C642.758 131.891 641.516 127.908 639.428 127.659C637.34 127.41 637.024 129.948 635.196 130.989Z" fill="#C6193A"/>
<path d="M602.933 318.253C601.799 322.217 596.17 318.967 595.103 321.815C594.036 324.664 592.719 327.945 596.982 331.561C601.245 335.177 606.441 338.177 609.606 337.695C612.771 337.212 619.467 337.614 620.235 332.284C621.003 326.954 613.508 324.936 613.41 319.106C613.331 314.442 608.652 314.68 606.323 315.382C604.746 315.854 603.369 316.729 602.933 318.253Z" fill="#C6193A"/>
<path d="M590.667 112.917C588.441 111.439 583.565 108.817 581.873 110.149C579.757 111.814 574.092 116.626 574.94 121.157C575.788 125.688 578.002 129.854 581.534 130.738C585.065 131.622 591.078 132.207 592.895 128.06C594.712 123.912 598.894 117.667 590.667 112.917Z" fill="#56CCF2"/>
<path d="M366.946 265.806C363.033 267.259 361.326 269.954 359.964 273.899C358.88 277.037 359.123 279.122 359.678 282.395C360.53 287.415 362.401 290.082 365.704 293.957C369.02 297.846 371.104 301.914 376.212 301.756C378.563 301.683 379.71 300.643 381.927 299.859C383.364 299.35 384.367 299.419 385.592 298.511C387.316 297.23 387.521 295.733 388.342 293.747C389.521 290.894 390.271 289.07 389.927 286.002C389.516 282.341 387.212 280.934 385.498 277.672C384.314 275.418 384.024 273.92 382.485 271.891C380.448 269.205 378.998 267.608 375.874 266.342C372.637 265.03 370.22 264.59 366.946 265.806Z" fill="#3582E5"/>
<path d="M483.946 373.806C480.033 375.259 478.326 377.954 476.964 381.899C475.88 385.037 476.123 387.122 476.678 390.395C477.53 395.415 479.401 398.082 482.704 401.957C486.02 405.846 488.104 409.914 493.212 409.756C495.563 409.683 496.71 408.643 498.927 407.859C500.364 407.35 501.367 407.419 502.592 406.511C504.316 405.23 504.521 403.733 505.342 401.747C506.521 398.894 507.271 397.07 506.927 394.002C506.516 390.341 504.212 388.934 502.498 385.672C501.314 383.418 501.024 381.92 499.485 379.891C497.448 377.205 495.998 375.608 492.874 374.342C489.637 373.03 487.22 372.59 483.946 373.806Z" fill="#56CCF2"/>
<path d="M485.644 225.169C487.51 224.088 489.85 224.043 491.156 224.831L494.5 226.849C494.5 226.849 495.706 229.406 496.169 231.146C496.62 232.844 496.583 233.857 496.849 235.594L497.605 240.537C497.753 241.502 498.122 242.041 497.983 243.008C497.806 244.245 497.362 245.003 496.384 245.781C495.455 246.521 494.679 246.646 493.494 246.729C491.489 246.871 490.39 245.976 488.668 244.939C485.885 243.261 485.02 241.365 483.161 238.7C482.311 237.48 481.149 235.467 481.149 235.467C481.149 235.467 479.423 232.219 480.393 230.524C481.132 229.234 482.716 229.688 483.626 228.512C484.323 227.612 483.913 226.607 484.731 225.814C485.044 225.51 485.266 225.387 485.644 225.169Z" fill="#3582E5"/>
<path d="M499.616 274.986C496.205 275.737 493.536 276.877 492.313 280.149C491.816 281.481 491.67 282.351 491.854 283.76C492.193 286.358 493.435 287.969 495.727 289.238C497.84 290.407 499.472 289.931 501.885 289.813C503.64 289.727 505 290.277 506.333 289.133C507.527 288.107 507.162 286.818 507.781 285.37C508.334 284.075 509.343 283.51 509.304 282.102C509.243 279.877 506.826 279.665 505.164 278.183C503.614 276.802 503.174 274.811 501.099 274.759C500.513 274.744 500.188 274.859 499.616 274.986Z" fill="#C6193A"/>
<path fill-rule="evenodd" clip-rule="evenodd" d="M453.984 342.875C455.931 341.796 457.475 341.536 459.631 342.094C461.143 342.485 463.095 344.094 463.095 344.094L466.492 347.21C466.492 347.21 469.6 350.791 469.255 353.424C469.002 355.36 466.755 357.754 466.755 357.754C466.755 357.754 465.293 359.93 463.889 360.718C462.319 361.599 459.358 361.566 459.358 361.566C459.358 361.566 455.204 359.826 454.229 357.45C453.529 355.746 454.064 352.736 454.064 352.736C454.064 352.736 453.901 352.615 453.645 352.401C453.585 352.435 453.553 352.453 453.553 352.453L450.254 355.167C450.254 355.167 448.682 357.279 447.205 357.448C445.459 357.648 443.308 355.198 443.308 355.198C443.308 355.198 441.856 352.226 441.593 350.167C441.449 349.037 441.544 347.252 441.544 347.252C441.544 347.252 444.083 346.712 445.642 346.154C446.316 345.913 446.826 345.608 447.317 345.315C447.98 344.92 448.608 344.545 449.558 344.373C450.478 344.206 451.255 344.119 452.008 344.173C452.567 343.698 453.239 343.288 453.984 342.875Z" fill="#6FCF97"/>
<path fill-rule="evenodd" clip-rule="evenodd" d="M466.315 134.078C463.962 134.556 461.488 135.058 459.036 133.913C455.217 132.129 452.565 130.483 451.193 126.498C449.999 123.029 450.222 120.357 451.979 117.136C453.135 115.016 454.177 113.882 456.278 112.69C459.063 111.11 461.292 110.864 464.407 111.61C464.851 111.717 465.335 111.825 465.843 111.939C468.157 112.458 470.965 113.088 472.767 114.129C474.968 115.399 475.292 115.967 476.209 117.571C476.42 117.939 476.661 118.362 476.964 118.86C478.263 120.997 478.182 122.703 477.928 125.19C477.513 129.27 476.575 136.533 472.678 134.284C470.76 133.176 468.595 133.615 466.315 134.078ZM466.722 116.702C467.532 117.422 467.92 117.767 467.102 118.941C466.03 120.48 464.076 119.9 462.074 119.305C461.281 119.069 460.48 118.831 459.723 118.722C458.649 118.567 458.85 118.227 459.302 117.459C459.396 117.299 459.501 117.121 459.607 116.923C460.53 115.202 462.324 114.436 464.205 114.959C464.958 115.168 465.398 115.394 465.938 115.959C466.221 116.257 466.489 116.495 466.722 116.702Z" fill="#C6193A"/>
<path d="M493.494 68.1399C493.952 66.8086 495.746 67.0561 496.157 65.7093C496.794 63.6211 495.007 61.8146 492.929 61.1448C490.852 60.475 489.175 61.4089 487.644 62.9651C485.989 64.6469 485.978 66.4207 486.004 68.7799C486.018 69.9514 486.656 70.5907 486.458 71.7454C486.178 73.3782 484.687 73.6823 483.946 75.1639C483.086 76.884 482.437 78.0037 482.65 79.9153C482.855 81.7563 483.446 82.8861 484.813 84.1367C486.686 85.8503 488.585 85.7933 491.122 85.7006C493.083 85.6289 494.302 85.4534 495.989 84.4502C497.199 83.7304 498.483 83.4174 498.652 82.0195C498.853 80.3519 495.897 80.5995 495.651 78.9378C495.498 77.8976 495.676 77.1884 496.262 76.3153C496.654 75.7308 497.111 75.6131 497.593 75.1C498.35 74.2948 499.172 73.9205 499.268 72.8199C499.45 70.7248 494.023 71.5997 494.023 71.5997C494.023 71.5997 493.049 69.4323 493.494 68.1399Z" fill="#6FCF97"/>
<path d="M555.372 242.683C560.68 242.88 565.019 244.207 567.456 248.927C568.799 251.53 569.295 253.498 568.59 256.341C567.574 260.441 564.42 261.829 560.601 263.633C556.893 265.384 554.211 266.168 550.222 265.221C545.786 264.167 542.432 262.365 541.028 258.028C540.036 254.965 540.386 252.714 541.795 249.818C543.48 246.355 545.826 244.916 549.441 243.59C549.441 243.59 553.031 242.596 555.372 242.683Z" fill="#56CCF2"/>
<path d="M603.011 261.539C606.177 261.057 591.875 245.827 589.99 247.092C587.24 251.856 589.686 259.618 590.668 261.917C591.65 264.216 599.846 262.021 603.011 261.539Z" fill="#C6193A"/>
<path d="M554.096 193.999C554.096 193.999 552.259 199.974 551.756 203.925C551.312 207.411 550.073 209.685 551.449 212.919C552.694 215.844 554.92 216.468 557.258 218.621C558.38 219.654 558.653 221.07 560.171 221.222C561.474 221.353 561.918 219.966 563.22 219.825C565.062 219.626 566.009 220.651 567.666 221.478C569.075 222.181 571.096 223.596 571.096 223.596C571.096 223.596 571.218 222.377 571.164 221.597C570.965 218.721 569.395 217.439 567.888 214.982C565.574 211.208 562.688 210.177 560.683 206.231C559.004 202.928 560.341 199.998 557.992 197.134C556.754 195.624 554.096 193.999 554.096 193.999Z" fill="#C6193A"/>
<path d="M614.591 193.153C615.059 188.343 612.773 183.637 610.73 182.842C603.802 178.842 599.947 183.515 597.292 185.446C593.492 189.026 592.735 190.362 595.949 201.443C597.75 207.65 607.806 212.907 613.27 211.443C614.947 210.871 617.475 208.559 614.172 203.881C610.042 198.033 614.007 199.167 614.591 193.153Z" fill="#6FCF97"/>
</svg>
