<svg width="147" height="191" viewBox="0 0 147 191" fill="none" xmlns="http://www.w3.org/2000/svg">
<path d="M135.442 9.81367L120.549 26.2186L120.549 2.10774e-05L108.99 1.90565e-05L-2.11283e-05 120.84L14.8926 120.84L108.99 17.1373L108.99 39.0349L23.1169 133.876L38.0096 133.876L51.3463 119.228L135.442 119.229L135.442 133.949L147 133.949L147 9.81367L135.442 9.81367ZM107.879 107.73L60.6079 107.73L107.879 55.8792L107.879 107.73ZM134.33 107.73L119.438 107.73L119.438 43.2094L134.33 26.8777L134.33 107.73Z" fill="white"/>
<path d="M147 156.725L-2.74027e-05 156.725L-2.94003e-05 168.15L147 168.15L147 156.725Z" fill="white"/>
<path d="M147 179.575L-3.13979e-05 179.575L-3.33955e-05 191L147 191L147 179.575Z" fill="white"/>
</svg>
