<svg width="245" height="161" viewBox="0 0 245 161" fill="none" xmlns="http://www.w3.org/2000/svg">
<path fill-rule="evenodd" clip-rule="evenodd" d="M4.35932 75.5459C43.2463 75.7243 82.1206 75.9445 120.932 75.9445C120.932 75.9445 126.957 76.3116 131.499 78.4413C139.44 82.1658 145.873 88.2929 153.319 94.1577C153.59 94.3675 153.862 94.5774 154.135 94.7873C162.656 101.229 174.718 100.264 185.122 100.127C205.045 99.886 224.962 99.802 244.85 99.823L244.844 111.343C223.04 111.322 201.077 111.532 179.289 111.721C168.386 111.773 156.896 110.787 148.793 105.143C145.049 102.53 141.581 99.5609 137.827 96.8856C136.878 96.1931 136.749 96.0673 136.256 95.6792C131.585 91.9022 126.782 87.5693 121.058 87.4539C85.544 87.2336 50.3018 87.265 14.9684 87.1076L4.30686 87.0656L0.358887 87.0446L0.412404 75.5352C1.72804 75.5352 3.04368 75.5459 4.35932 75.5459Z" fill="white"/>
<path fill-rule="evenodd" clip-rule="evenodd" d="M113.967 51.3701C116.964 51.3806 121.131 51.4121 121.131 51.4121C130.684 51.9892 138.607 58.7984 145.986 63.9917C151.161 67.6638 155.626 72.4896 161.588 73.9059C170.165 75.9518 179.148 75.6686 187.905 75.5637C206.895 75.3539 225.884 75.2802 244.859 75.2907L244.852 86.8109C223.033 86.7899 201.085 86.9996 179.298 87.1884C168.395 87.2409 156.904 86.2546 148.802 80.6102C145.106 78.0398 141.741 75.0599 137.975 72.4475C136.807 71.6186 136.676 71.4932 136.091 71.0315C131.47 67.391 126.612 63.5086 121.208 62.9631C119.057 62.7428 118.748 62.9006 117.729 62.9006C116.044 62.8901 114.358 62.8898 112.672 62.8898C110.257 62.8898 107.842 62.8901 105.427 62.9006L105.393 51.3911C107.399 51.3806 109.405 51.3806 111.411 51.3701C112.263 51.3701 113.115 51.3701 113.967 51.3701Z" fill="white"/>
<path fill-rule="evenodd" clip-rule="evenodd" d="M113.967 27.0854C116.964 27.0959 121.131 27.1276 121.131 27.1276C130.684 27.7046 138.607 34.5138 145.986 39.7071C151.161 43.3791 155.626 48.2049 161.588 49.6213C170.165 51.6671 179.148 51.384 187.905 51.279C206.895 51.0692 225.884 50.9956 244.859 51.0061L244.852 62.5262C223.033 62.5052 201.085 62.715 179.298 62.9039C168.395 62.9563 156.904 61.97 148.802 56.3256C145.106 53.7552 141.741 50.7752 137.975 48.1628C136.807 47.334 136.676 47.2085 136.091 46.7469C131.47 43.1063 126.612 39.224 121.208 38.6784C119.057 38.4581 118.748 38.6159 117.729 38.6159C116.044 38.6054 114.358 38.6053 112.672 38.6053C110.257 38.6053 107.842 38.6054 105.427 38.6159L105.393 27.1066C107.399 27.0961 109.405 27.0959 111.411 27.0854C112.263 27.0854 113.115 27.0854 113.967 27.0854Z" fill="white"/>
<path fill-rule="evenodd" clip-rule="evenodd" d="M4.34043 100.249C43.2295 100.364 82.1059 100.501 120.923 100.501C120.923 100.501 126.948 100.868 131.49 102.998C139.431 106.722 145.863 112.849 153.31 118.714C153.581 118.924 153.852 119.134 154.125 119.344C162.646 125.785 174.709 124.82 185.113 124.684C205.035 124.442 224.953 124.358 244.84 124.379L244.834 135.9C223.031 135.879 201.068 136.088 179.28 136.277C168.377 136.33 156.887 135.343 148.784 129.699C145.04 127.097 141.572 124.117 137.817 121.442C136.869 120.749 136.74 120.624 136.247 120.235C131.576 116.459 126.773 112.126 121.048 112.01C85.8168 111.79 50.3469 111.894 14.9684 111.789L4.30582 111.758L0.358887 111.748L0.393514 100.239C1.70915 100.239 3.02479 100.238 4.34043 100.249Z" fill="white"/>
<path fill-rule="evenodd" clip-rule="evenodd" d="M4.35932 124.594C43.2463 124.772 82.1206 124.992 120.932 124.992C120.932 124.992 126.957 125.359 131.499 127.489C139.44 131.214 145.873 137.341 153.319 143.206C153.59 143.415 153.862 143.625 154.135 143.835C162.656 150.277 174.718 149.312 185.122 149.175C205.045 148.934 224.962 148.85 244.85 148.871L244.844 160.391C223.04 160.37 201.077 160.58 179.289 160.769C168.386 160.821 156.896 159.835 148.793 154.19C145.049 151.578 141.581 148.609 137.827 145.933C136.878 145.241 136.749 145.115 136.256 144.727C131.585 140.95 126.782 136.617 121.058 136.502C85.544 136.281 50.3018 136.313 14.9684 136.155L4.30686 136.113L0.358887 136.092L0.412404 124.583C1.72804 124.583 3.04368 124.594 4.35932 124.594Z" fill="white"/>
<path fill-rule="evenodd" clip-rule="evenodd" d="M113.249 0.76709C116.246 0.777581 120.414 0.809097 120.414 0.809097C129.966 1.38613 137.889 8.1954 145.268 13.3887C150.444 17.0608 154.908 21.8866 160.87 23.3029C169.447 25.3488 178.43 25.0656 187.187 24.9607C206.177 24.7508 225.167 24.6771 244.142 24.6876L244.134 36.2078C222.315 36.1869 200.368 36.3966 178.58 36.5854C167.677 36.6379 156.187 35.6516 148.084 30.0072C144.388 27.4367 141.023 24.4569 137.257 21.8445C136.089 21.0156 135.958 20.8901 135.374 20.4285C130.752 16.7879 125.894 12.9056 120.49 12.3601C118.339 12.1397 118.03 12.2976 117.011 12.2976C115.326 12.2871 113.64 12.2868 111.954 12.2868C109.539 12.2868 107.124 12.2871 104.709 12.2976L104.675 0.788093C106.681 0.777602 108.687 0.777581 110.693 0.76709C111.545 0.76709 112.397 0.76709 113.249 0.76709Z" fill="white"/>
<path fill-rule="evenodd" clip-rule="evenodd" d="M43.7718 5.30187V5.29761C51.5719 13.1692 59.3679 21.0407 67.168 28.9122L89.075 42.9634L101 67.4614L97.8734 69L86.3774 45.3854L81.7534 42.4201L93.6784 66.6443L90.5559 68.1955L76.0736 38.7787L71.264 35.6931L84.8471 63.2809L81.7246 64.8361L65.584 32.0519L64.9694 31.6578L57.0703 23.6826L76.0117 62.1612L72.8933 63.7165L49.3445 15.8858L44.2091 10.6974L44.3823 13.2977L55.6803 36.2573L60.0774 40.1723L67.7537 61.0829L64.4827 62.2939L57.1116 42.2085L44.4895 30.9569L38.657 48.4918L35.353 47.3802L41.862 27.8133L40.7648 11.4606L28.9842 33.6942L6.71006 57.2673L4 55.0651L26.6372 31.7864L41.598 3L43.7718 5.30187ZM45.3021 27.0004L48.7546 30.0819L44.9928 22.4384L45.3021 27.0004Z" fill="white"/>
</svg>
