<!-- <svg width="183" height="185" viewBox="0 0 183 185" fill="none" xmlns="http://www.w3.org/2000/svg">
<path d="M7 119.262L62.9191 22.515C71.4934 7.68328 90.5059 2.59459 105.356 11.1585C120.205 19.7224 125.3 38.7119 116.726 53.5436L71.6798 131.456C63.1055 146.288 68.2004 165.278 83.05 173.842C97.8996 182.405 116.912 177.317 125.486 162.485L176 75.1705" stroke="#000" stroke-width="14"/>
</svg> -->

<svg width="98" height="99" viewBox="0 0 98 99" fill="none" xmlns="http://www.w3.org/2000/svg">
<path stroke="white" stroke-width="10" d="M7 62.8028L34.7941 14.7121C39.0559 7.33964 48.5059 4.81017 55.8868 9.06708C63.2676 13.324 65.8 22.7632 61.5382 30.1357L39.1485 68.8643C34.8868 76.2368 37.4191 85.676 44.8 89.9329C52.1809 94.1898 61.6309 91.6604 65.8926 84.2879L91 40.8859"/>
</svg>
