<?xml version="1.0" standalone="no"?>
<!DOCTYPE svg PUBLIC "-//W3C//DTD SVG 20010904//EN"
 "http://www.w3.org/TR/2001/REC-SVG-20010904/DTD/svg10.dtd">
<svg version="1.0" xmlns="http://www.w3.org/2000/svg"
 width="792.000000pt" height="792.000000pt" viewBox="0 0 792.000000 792.000000"
 preserveAspectRatio="xMidYMid meet">
<metadata>
Created by potrace 1.11, written by Peter Selinger 2001-2013
</metadata>
<g transform="translate(0.000000,792.000000) scale(0.100000,-0.100000)"
fill="#000000" stroke="none">
<path d="M3748 7755 c-2 -2 -28 -6 -58 -9 -50 -5 -76 -10 -180 -32 -14 -2 -40
-9 -58 -15 -18 -6 -39 -12 -45 -13 -27 -4 -166 -62 -251 -103 -192 -95 -379
-243 -521 -414 -54 -65 -62 -75 -81 -107 -10 -18 -22 -32 -26 -32 -4 0 -8 -4
-8 -9 0 -6 -24 -49 -53 -98 -30 -48 -65 -108 -79 -133 -14 -25 -101 -175 -193
-335 -92 -159 -179 -310 -193 -335 -13 -25 -28 -49 -32 -55 -4 -5 -17 -26 -27
-45 -11 -19 -46 -80 -78 -135 -32 -55 -69 -120 -83 -145 -14 -25 -44 -76 -67
-115 -38 -64 -56 -96 -113 -195 -10 -19 -43 -75 -72 -125 -29 -49 -64 -110
-78 -134 -14 -25 -38 -68 -55 -95 -16 -28 -43 -76 -60 -106 -16 -30 -36 -62
-43 -71 -8 -8 -14 -18 -14 -22 0 -10 -114 -202 -125 -209 -5 -4 -6 -8 -1 -8 5
0 4 -6 -2 -12 -5 -7 -68 -115 -140 -239 -72 -124 -140 -241 -151 -260 -11 -19
-24 -41 -28 -49 -3 -8 -21 -39 -40 -67 -18 -29 -30 -53 -26 -53 3 0 -1 -8 -9
-17 -13 -15 -147 -244 -236 -402 -14 -25 -38 -67 -53 -93 -16 -27 -29 -53 -29
-58 0 -6 -3 -10 -7 -10 -5 0 -13 -10 -19 -23 -6 -12 -37 -67 -69 -122 -77
-132 -87 -153 -82 -162 3 -5 30 -21 61 -37 31 -16 56 -33 56 -38 0 -4 5 -8 11
-8 7 0 60 -28 118 -61 299 -173 431 -249 435 -249 5 0 216 359 334 570 14 25
40 69 58 98 19 28 31 52 28 52 -3 0 9 20 26 44 16 25 30 47 30 49 0 2 43 77
95 166 52 90 95 167 95 172 0 5 4 9 8 9 4 0 13 12 19 28 7 15 24 48 40 74 80
135 163 282 163 289 0 5 3 9 8 9 4 0 13 15 21 33 8 17 17 34 20 37 6 5 13 17
59 99 14 25 30 49 36 53 6 5 7 8 1 8 -7 0 -7 3 0 8 6 4 18 23 29 42 21 40 14
28 166 290 62 107 122 212 134 232 55 95 122 211 131 226 14 23 93 160 113
197 9 17 20 32 25 33 4 2 7 9 7 16 0 6 11 28 25 49 14 20 23 37 19 37 -4 0 0
8 8 18 13 14 168 280 272 464 12 20 75 129 141 243 66 113 125 214 131 225 35
64 223 258 237 244 2 -2 10 2 17 11 7 8 19 15 26 15 8 0 14 4 14 8 0 7 43 27
64 29 5 1 12 5 15 10 6 9 126 48 176 58 17 3 55 8 85 11 30 3 61 7 68 9 6 2
12 1 12 -3 0 -4 21 -7 48 -7 55 1 183 -23 196 -36 6 -5 17 -9 25 -9 25 0 134
-55 198 -99 81 -55 203 -176 203 -201 0 -5 5 -10 10 -10 6 0 10 -6 10 -14 0
-8 3 -16 8 -18 15 -7 86 -158 97 -208 27 -121 32 -163 30 -247 -3 -119 -9
-157 -40 -248 -24 -71 -86 -197 -111 -226 -8 -9 -12 -18 -9 -21 3 -3 -1 -11
-10 -18 -8 -7 -15 -19 -15 -26 0 -8 -4 -14 -10 -14 -5 0 -10 -4 -10 -9 0 -6
-52 -99 -115 -207 -63 -109 -115 -201 -115 -205 0 -4 -6 -14 -12 -21 -14 -15
-25 -33 -71 -118 -17 -30 -48 -83 -69 -118 -21 -34 -38 -67 -38 -72 0 -6 -4
-10 -8 -10 -4 0 -13 -12 -19 -27 -7 -16 -20 -41 -30 -58 -10 -16 -65 -111
-122 -210 -58 -99 -133 -228 -168 -288 -35 -59 -63 -109 -63 -111 0 -2 -17
-33 -38 -67 -22 -35 -92 -156 -157 -269 -65 -113 -126 -218 -136 -235 -10 -16
-27 -46 -37 -65 -10 -19 -34 -60 -52 -90 -18 -30 -41 -70 -51 -87 -48 -83 -64
-111 -87 -153 -14 -25 -33 -57 -43 -72 -11 -14 -19 -29 -19 -32 0 -4 -20 -39
-44 -79 -24 -39 -72 -121 -106 -182 -35 -60 -77 -135 -94 -165 -62 -108 -109
-217 -147 -339 -29 -92 -33 -112 -45 -180 -3 -18 -7 -43 -9 -54 -21 -104 -23
-310 -5 -446 12 -90 17 -126 20 -126 1 0 4 -13 6 -29 10 -57 84 -268 125 -353
37 -77 113 -209 129 -223 3 -3 19 -25 35 -49 17 -25 80 -95 140 -157 102 -104
137 -132 271 -226 57 -41 205 -118 279 -146 28 -10 59 -23 70 -27 25 -10 24
-10 60 -20 17 -4 35 -10 40 -14 6 -3 15 -6 20 -6 6 0 35 -6 65 -13 143 -32
184 -36 360 -36 138 0 246 7 290 19 8 2 26 6 40 9 14 3 43 10 65 16 22 6 49
13 60 15 26 6 161 53 183 64 155 76 218 111 276 149 68 46 203 158 260 216 42
43 164 194 178 219 6 12 14 24 18 27 3 3 37 59 76 125 38 66 74 127 79 136 6
10 17 30 26 46 9 15 32 57 53 91 20 35 36 68 36 73 0 5 3 9 8 9 4 0 12 10 18
23 16 33 64 118 83 147 10 14 28 46 42 72 13 27 27 48 31 48 5 0 8 5 8 11 0 9
38 77 129 229 11 19 32 58 47 85 15 28 42 74 60 103 19 29 34 54 34 56 0 3 21
40 46 83 26 43 57 96 70 118 12 22 63 110 113 195 50 85 96 167 102 183 6 15
15 27 20 27 5 0 9 4 9 9 0 8 84 162 110 201 6 8 20 34 32 58 12 23 26 42 30
42 4 0 8 5 8 11 0 6 19 44 43 83 24 39 46 78 50 86 4 8 17 31 28 50 23 39 351
606 380 656 9 17 23 42 31 55 7 13 15 26 18 29 3 3 12 19 21 35 9 17 42 75 74
130 101 174 135 234 135 242 0 5 -17 17 -37 28 -21 11 -77 44 -126 73 -48 28
-90 52 -93 52 -3 0 -30 16 -60 35 -30 19 -56 35 -58 35 -2 0 -72 40 -157 89
-137 81 -154 88 -164 73 -31 -45 -125 -212 -125 -221 0 -5 -3 -11 -7 -13 -5
-1 -19 -23 -32 -48 -14 -25 -27 -47 -30 -50 -3 -3 -14 -21 -24 -40 -31 -59
-52 -95 -57 -100 -3 -3 -10 -14 -16 -25 -55 -101 -78 -141 -84 -150 -4 -5 -18
-28 -30 -50 -76 -136 -186 -321 -195 -327 -5 -4 -7 -8 -3 -8 4 0 -21 -46 -55
-103 -34 -56 -71 -120 -82 -142 -11 -22 -23 -42 -26 -45 -3 -3 -9 -12 -13 -20
-4 -8 -12 -24 -19 -35 -7 -11 -46 -78 -87 -150 -41 -71 -80 -139 -87 -150 -7
-11 -15 -27 -19 -35 -4 -8 -10 -17 -14 -20 -3 -3 -17 -26 -30 -52 -14 -26
-126 -222 -250 -435 -124 -213 -241 -415 -260 -449 -19 -34 -48 -84 -64 -110
-15 -27 -40 -69 -53 -93 -14 -24 -60 -103 -102 -175 -43 -73 -80 -138 -84
-146 -4 -8 -21 -37 -37 -65 -17 -27 -42 -72 -56 -100 -15 -27 -30 -52 -35 -53
-5 -2 -9 -8 -9 -14 0 -11 -64 -110 -95 -147 -37 -44 -143 -141 -155 -141 -3 0
-15 -8 -26 -18 -28 -26 -162 -89 -230 -108 -76 -21 -94 -24 -183 -30 -41 -2
-78 -7 -83 -10 -4 -3 -8 -2 -8 3 0 4 -12 9 -27 9 -71 3 -174 25 -233 50 -74
33 -147 71 -160 84 -3 3 -24 18 -47 33 -125 86 -266 295 -298 447 -2 8 -4 15
-5 15 -1 0 -3 9 -4 20 -2 11 -6 34 -10 50 -16 72 -5 288 17 330 6 11 10 22 9
25 -6 19 61 172 111 253 18 29 40 66 49 82 33 59 109 190 118 205 10 16 49 84
131 228 12 20 30 51 40 67 11 17 22 37 26 45 4 8 49 87 100 174 51 87 93 161
93 163 0 2 11 20 24 41 13 20 76 129 141 242 65 113 125 216 133 230 9 14 15
28 14 33 -1 4 2 7 7 7 5 0 13 10 17 23 4 12 18 40 33 62 31 49 67 112 84 145
6 14 14 27 17 30 5 4 60 99 120 204 9 17 37 65 62 106 24 41 47 82 51 90 4 8
18 33 31 55 14 22 37 63 51 90 15 28 33 57 41 66 8 8 14 18 14 22 0 4 23 44
50 91 28 47 50 89 50 95 0 6 5 11 10 11 6 0 10 4 10 9 0 12 112 205 125 213 5
4 6 8 2 8 -5 0 1 13 12 28 10 15 34 55 52 87 18 33 35 62 38 65 25 21 152 318
166 390 2 8 4 15 5 15 7 0 35 145 47 245 8 66 8 331 -1 380 -3 19 -8 55 -11
79 -3 24 -7 46 -9 50 -2 3 -7 22 -10 41 -3 19 -20 82 -39 140 -65 199 -190
426 -299 541 -15 16 -25 29 -23 29 6 0 -121 126 -174 173 -23 20 -46 37 -51
37 -5 0 -10 4 -12 8 -1 4 -25 23 -53 42 -27 19 -52 37 -55 40 -16 16 -186 104
-250 130 -30 12 -64 26 -75 31 -31 13 -111 38 -137 43 -13 2 -43 9 -67 16 -25
6 -56 13 -70 15 -14 2 -26 4 -26 5 0 8 -399 22 -407 15z"/>
</g>
</svg>
